<svg width="1440" height="1024" viewBox="0 0 1440 1024" fill="none" xmlns="http://www.w3.org/2000/svg">
<g clip-path="url(#clip0_841_86)">
<rect width="1440" height="1024" fill="url(#paint0_linear_841_86)"/>
<path opacity="0.05" d="M220.162 -56.253L251.82 -56.253L267.648 -28.8369L251.82 -1.42079L220.162 -1.42079L204.334 -28.8369L220.162 -56.253Z" fill="white"/>
<path opacity="0.05" d="M1333.16 -64.253L1364.82 -64.253L1380.65 -36.8369L1364.82 -9.42079L1333.16 -9.42079L1317.33 -36.8369L1333.16 -64.253Z" fill="white"/>
<path opacity="0.05" d="M776.265 -60.0675L807.922 -60.0675L823.751 -32.6514L807.922 -5.23524L776.265 -5.23524L760.436 -32.6514L776.265 -60.0675Z" fill="white"/>
<path opacity="0.05" d="M331.535 6.29874L363.193 6.29874L379.021 33.7149L363.193 61.131L331.535 61.131L315.707 33.7149L331.535 6.29874Z" fill="white"/>
<path opacity="0.05" d="M1444.54 -1.70126L1476.19 -1.70126L1492.02 25.7149L1476.19 53.131L1444.54 53.131L1428.71 25.7149L1444.54 -1.70126Z" fill="white"/>
<path opacity="0.05" d="M887.638 2.48478L919.295 2.48478L935.124 29.9009L919.295 57.317L887.638 57.317L871.809 29.9009L887.638 2.48478Z" fill="white"/>
<path opacity="0.05" d="M387.222 37.5746L418.879 37.5746L434.708 64.9907L418.879 92.4068L387.222 92.4068L371.393 64.9907L387.222 37.5746Z" fill="white"/>
<path opacity="0.05" d="M943.324 33.7607L974.981 33.7607L990.81 61.1768L974.981 88.5929L943.324 88.5929L927.495 61.1768L943.324 33.7607Z" fill="white"/>
<path opacity="0.05" d="M498.595 100.127L530.252 100.127L546.081 127.543L530.252 154.959L498.595 154.959L482.766 127.543L498.595 100.127Z" fill="white"/>
<path opacity="0.05" d="M1054.7 96.3124L1086.35 96.3124L1102.18 123.729L1086.35 151.145L1054.7 151.145L1038.87 123.729L1054.7 96.3124Z" fill="white"/>
<path opacity="0.05" d="M220.162 7.06144L251.82 7.06144L267.648 34.4775L251.82 61.8937L220.162 61.8937L204.334 34.4776L220.162 7.06144Z" fill="white"/>
<path opacity="0.05" d="M1333.16 -0.938564L1364.82 -0.938565L1380.65 26.4775L1364.82 53.8937L1333.16 53.8937L1317.33 26.4776L1333.16 -0.938564Z" fill="white"/>
<path opacity="0.05" d="M776.265 3.24747L807.922 3.24747L823.751 30.6636L807.922 58.0797L776.265 58.0797L760.436 30.6636L776.265 3.24747Z" fill="white"/>
<path opacity="0.05" d="M275.849 38.3378L307.506 38.3378L323.335 65.7539L307.506 93.17L275.849 93.17L260.02 65.7539L275.849 38.3378Z" fill="white"/>
<path opacity="0.05" d="M1388.85 30.3378L1420.51 30.3378L1436.33 57.7539L1420.51 85.17L1388.85 85.17L1373.02 57.7539L1388.85 30.3378Z" fill="white"/>
<path opacity="0.05" d="M275.849 101.652L307.506 101.652L323.335 129.068L307.506 156.484L275.849 156.484L260.02 129.068L275.849 101.652Z" fill="white"/>
<path opacity="0.05" d="M1388.85 93.6523L1420.51 93.6523L1436.33 121.068L1420.51 148.484L1388.85 148.484L1373.02 121.068L1388.85 93.6523Z" fill="white"/>
<path opacity="0.05" d="M275.849 164.967L307.506 164.967L323.335 192.383L307.506 219.799L275.849 219.799L260.02 192.383L275.849 164.967Z" fill="white"/>
<path opacity="0.05" d="M1388.85 156.967L1420.51 156.967L1436.33 184.383L1420.51 211.799L1388.85 211.799L1373.02 184.383L1388.85 156.967Z" fill="white"/>
<path opacity="0.05" d="M831.951 34.5233L863.608 34.5233L879.437 61.9395L863.608 89.3556L831.951 89.3556L816.122 61.9395L831.951 34.5233Z" fill="white"/>
<path opacity="0.05" d="M498.595 163.441L530.252 163.441L546.081 190.857L530.252 218.274L498.595 218.274L482.766 190.857L498.595 163.441Z" fill="white"/>
<path opacity="0.05" d="M1054.7 159.627L1086.35 159.627L1102.18 187.043L1086.35 214.46L1054.7 214.46L1038.87 187.043L1054.7 159.627Z" fill="white"/>
<path opacity="0.05" d="M-2.58389 -54.7276L29.0735 -54.7276L44.9022 -27.3115L29.0735 0.104601L-2.58389 0.104601L-18.4126 -27.3115L-2.58389 -54.7276Z" fill="white"/>
<path opacity="0.05" d="M1110.42 -62.7276L1142.07 -62.7276L1157.9 -35.3115L1142.07 -7.8954L1110.42 -7.8954L1094.59 -35.3115L1110.42 -62.7276Z" fill="white"/>
<path opacity="0.05" d="M553.518 -58.5416L585.176 -58.5416L601.005 -31.1255L585.176 -3.70936L553.518 -3.70936L537.69 -31.1255L553.518 -58.5416Z" fill="white"/>
<path opacity="0.05" d="M108.789 7.82462L140.447 7.82462L156.275 35.2407L140.447 62.6568L108.789 62.6568L92.9605 35.2407L108.789 7.82462Z" fill="white"/>
<path opacity="0.05" d="M1221.79 -0.175381L1253.45 -0.175381L1269.28 27.2407L1253.45 54.6568L1221.79 54.6568L1205.96 27.2407L1221.79 -0.175381Z" fill="white"/>
<path opacity="0.05" d="M664.891 4.01017L696.549 4.01017L712.378 31.4263L696.549 58.8424L664.891 58.8424L649.063 31.4263L664.891 4.01017Z" fill="white"/>
<path opacity="0.05" d="M331.535 132.928L363.193 132.928L379.021 160.344L363.193 187.76L331.535 187.76L315.707 160.344L331.535 132.928Z" fill="white"/>
<path opacity="0.05" d="M1444.54 124.928L1476.19 124.928L1492.02 152.344L1476.19 179.76L1444.54 179.76L1428.71 152.344L1444.54 124.928Z" fill="white"/>
<path opacity="0.05" d="M887.638 129.114L919.295 129.114L935.124 156.53L919.295 183.946L887.638 183.946L871.809 156.53L887.638 129.114Z" fill="white"/>
<path opacity="0.05" d="M387.222 164.205L418.879 164.205L434.708 191.621L418.879 219.037L387.222 219.037L371.393 191.621L387.222 164.205Z" fill="white"/>
<path opacity="0.05" d="M943.324 160.39L974.981 160.39L990.81 187.806L974.981 215.222L943.324 215.222L927.495 187.806L943.324 160.39Z" fill="white"/>
<path opacity="0.05" d="M108.789 71.1391L140.447 71.1391L156.275 98.5552L140.447 125.971L108.789 125.971L92.9605 98.5552L108.789 71.1391Z" fill="white"/>
<path opacity="0.05" d="M1221.79 63.1391L1253.45 63.1391L1269.28 90.5552L1253.45 117.971L1221.79 117.971L1205.96 90.5552L1221.79 63.1391Z" fill="white"/>
<path opacity="0.05" d="M664.891 67.3251L696.549 67.3251L712.378 94.7412L696.549 122.157L664.891 122.157L649.063 94.7412L664.891 67.3251Z" fill="white"/>
<path opacity="0.05" d="M164.476 102.415L196.133 102.415L211.962 129.832L196.133 157.248L164.476 157.248L148.647 129.832L164.476 102.415Z" fill="white"/>
<path opacity="0.05" d="M1277.48 94.4154L1309.13 94.4154L1324.96 121.832L1309.13 149.248L1277.48 149.248L1261.65 121.832L1277.48 94.4154Z" fill="white"/>
<path opacity="0.05" d="M720.578 98.601L752.235 98.601L768.064 126.017L752.235 153.433L720.578 153.433L704.749 126.017L720.578 98.601Z" fill="white"/>
<path opacity="0.05" d="M220.162 133.691L251.82 133.691L267.648 161.107L251.82 188.524L220.162 188.524L204.334 161.107L220.162 133.691Z" fill="white"/>
<path opacity="0.05" d="M1333.16 125.691L1364.82 125.691L1380.65 153.107L1364.82 180.524L1333.16 180.524L1317.33 153.107L1333.16 125.691Z" fill="white"/>
<path opacity="0.05" d="M776.265 129.877L807.922 129.877L823.751 157.293L807.922 184.709L776.265 184.709L760.436 157.293L776.265 129.877Z" fill="white"/>
<path opacity="0.05" d="M387.222 227.519L418.879 227.519L434.708 254.935L418.879 282.351L387.222 282.351L371.393 254.935L387.222 227.519Z" fill="white"/>
<path opacity="0.05" d="M943.324 223.705L974.981 223.705L990.81 251.121L974.981 278.537L943.324 278.537L927.495 251.121L943.324 223.705Z" fill="white"/>
<path opacity="0.05" d="M442.908 258.795L474.566 258.795L490.394 286.211L474.566 313.628L442.908 313.628L427.08 286.211L442.908 258.795Z" fill="white"/>
<path opacity="0.05" d="M442.908 195.48L474.566 195.48L490.394 222.896L474.566 250.313L442.908 250.313L427.08 222.896L442.908 195.48Z" fill="white"/>
<path opacity="0.05" d="M442.908 132.165L474.566 132.165L490.394 159.582L474.566 186.998L442.908 186.998L427.08 159.582L442.908 132.165Z" fill="white"/>
<path opacity="0.05" d="M442.908 68.851L474.566 68.851L490.394 96.2671L474.566 123.683L442.908 123.683L427.08 96.2671L442.908 68.851Z" fill="white"/>
<path opacity="0.05" d="M442.908 5.53605L474.566 5.53604L490.394 32.9522L474.566 60.3683L442.908 60.3683L427.08 32.9522L442.908 5.53605Z" fill="white"/>
<path opacity="0.05" d="M442.908 322.11L474.566 322.11L490.394 349.526L474.566 376.942L442.908 376.942L427.08 349.526L442.908 322.11Z" fill="white"/>
<path opacity="0.05" d="M442.908 385.425L474.566 385.425L490.394 412.841L474.566 440.257L442.908 440.257L427.08 412.841L442.908 385.425Z" fill="white"/>
<path opacity="0.05" d="M999.011 254.981L1030.67 254.981L1046.5 282.397L1030.67 309.813L999.011 309.813L983.182 282.397L999.011 254.981Z" fill="white"/>
<path opacity="0.05" d="M999.011 191.666L1030.67 191.666L1046.5 219.083L1030.67 246.499L999.011 246.499L983.182 219.083L999.011 191.666Z" fill="white"/>
<path opacity="0.05" d="M999.011 128.351L1030.67 128.351L1046.5 155.768L1030.67 183.184L999.011 183.184L983.182 155.768L999.011 128.351Z" fill="white"/>
<path opacity="0.05" d="M999.011 65.0365L1030.67 65.0365L1046.5 92.4526L1030.67 119.869L999.011 119.869L983.182 92.4526L999.011 65.0365Z" fill="white"/>
<path opacity="0.05" d="M498.595 290.071L530.252 290.071L546.081 317.487L530.252 344.903L498.595 344.903L482.766 317.487L498.595 290.071Z" fill="white"/>
<path opacity="0.05" d="M1054.7 286.257L1086.35 286.257L1102.18 313.673L1086.35 341.089L1054.7 341.089L1038.87 313.673L1054.7 286.257Z" fill="white"/>
<path opacity="0.05" d="M1054.7 349.572L1086.35 349.572L1102.18 376.988L1086.35 404.404L1054.7 404.404L1038.87 376.988L1054.7 349.572Z" fill="white"/>
<path opacity="0.05" d="M220.162 197.006L251.82 197.006L267.648 224.422L251.82 251.838L220.162 251.838L204.334 224.422L220.162 197.006Z" fill="white"/>
<path opacity="0.05" d="M1333.16 189.006L1364.82 189.006L1380.65 216.422L1364.82 243.838L1333.16 243.838L1317.33 216.422L1333.16 189.006Z" fill="white"/>
<path opacity="0.05" d="M220.162 260.321L251.82 260.321L267.648 287.737L251.82 315.153L220.162 315.153L204.334 287.737L220.162 260.321Z" fill="white"/>
<path opacity="0.05" d="M1333.16 252.321L1364.82 252.321L1380.65 279.737L1364.82 307.153L1333.16 307.153L1317.33 279.737L1333.16 252.321Z" fill="white"/>
<path opacity="0.05" d="M220.162 323.636L251.82 323.636L267.648 351.052L251.82 378.468L220.162 378.468L204.334 351.052L220.162 323.636Z" fill="white"/>
<path opacity="0.05" d="M1333.16 315.636L1364.82 315.636L1380.65 343.052L1364.82 370.468L1333.16 370.468L1317.33 343.052L1333.16 315.636Z" fill="white"/>
<path opacity="0.05" d="M776.265 193.192L807.922 193.192L823.751 220.608L807.922 248.024L776.265 248.024L760.436 220.608L776.265 193.192Z" fill="white"/>
<path opacity="0.05" d="M331.535 259.558L363.193 259.558L379.021 286.974L363.193 314.39L331.535 314.39L315.707 286.974L331.535 259.558Z" fill="white"/>
<path opacity="0.05" d="M1444.54 251.558L1476.19 251.558L1492.02 278.974L1476.19 306.39L1444.54 306.39L1428.71 278.974L1444.54 251.558Z" fill="white"/>
<path opacity="0.05" d="M887.638 255.744L919.295 255.744L935.124 283.16L919.295 310.576L887.638 310.576L871.809 283.16L887.638 255.744Z" fill="white"/>
<path opacity="0.05" d="M887.638 192.429L919.295 192.429L935.124 219.845L919.295 247.261L887.638 247.261L871.809 219.845L887.638 192.429Z" fill="white"/>
<path opacity="0.05" d="M-2.58389 135.217L29.0735 135.217L44.9022 162.633L29.0735 190.049L-2.58389 190.049L-18.4126 162.633L-2.58389 135.217Z" fill="white"/>
<path opacity="0.05" d="M1110.42 127.217L1142.07 127.217L1157.9 154.633L1142.07 182.049L1110.42 182.049L1094.59 154.633L1110.42 127.217Z" fill="white"/>
<path opacity="0.05" d="M553.518 131.403L585.176 131.403L601.005 158.819L585.176 186.235L553.518 186.235L537.69 158.819L553.518 131.403Z" fill="white"/>
<path opacity="0.05" d="M553.518 68.0878L585.176 68.0878L601.005 95.5039L585.176 122.92L553.518 122.92L537.69 95.5039L553.518 68.0878Z" fill="white"/>
<path opacity="0.05" d="M553.518 4.77286L585.176 4.77286L601.005 32.189L585.176 59.6051L553.518 59.6051L537.69 32.189L553.518 4.77286Z" fill="white"/>
<path opacity="0.05" d="M53.1026 166.493L84.76 166.493L100.589 193.909L84.76 221.325L53.1026 221.325L37.2739 193.909L53.1026 166.493Z" fill="white"/>
<path opacity="0.05" d="M1166.1 158.493L1197.76 158.493L1213.59 185.909L1197.76 213.325L1166.1 213.325L1150.27 185.909L1166.1 158.493Z" fill="white"/>
<path opacity="0.05" d="M53.1026 103.178L84.76 103.178L100.589 130.594L84.76 158.01L53.1026 158.01L37.2739 130.594L53.1026 103.178Z" fill="white"/>
<path opacity="0.05" d="M1166.1 95.1781L1197.76 95.1781L1213.59 122.594L1197.76 150.01L1166.1 150.01L1150.27 122.594L1166.1 95.1781Z" fill="white"/>
<path opacity="0.05" d="M53.1026 39.8632L84.76 39.8632L100.589 67.2793L84.76 94.6954L53.1026 94.6954L37.2739 67.2793L53.1026 39.8632Z" fill="white"/>
<path opacity="0.05" d="M1166.1 31.8632L1197.76 31.8632L1213.59 59.2793L1197.76 86.6954L1166.1 86.6954L1150.27 59.2793L1166.1 31.8632Z" fill="white"/>
<path opacity="0.05" d="M609.205 162.679L640.862 162.679L656.691 190.095L640.862 217.511L609.205 217.511L593.376 190.095L609.205 162.679Z" fill="white"/>
<path opacity="0.05" d="M108.789 197.769L140.447 197.769L156.275 225.185L140.447 252.601L108.789 252.601L92.9605 225.185L108.789 197.769Z" fill="white"/>
<path opacity="0.05" d="M1221.79 189.769L1253.45 189.769L1269.28 217.185L1253.45 244.601L1221.79 244.601L1205.96 217.185L1221.79 189.769Z" fill="white"/>
<path opacity="0.05" d="M664.891 193.955L696.549 193.955L712.378 221.371L696.549 248.787L664.891 248.787L649.063 221.371L664.891 193.955Z" fill="white"/>
<path opacity="0.05" d="M275.849 291.597L307.506 291.597L323.335 319.013L307.506 346.429L275.849 346.429L260.02 319.013L275.849 291.597Z" fill="white"/>
<path opacity="0.05" d="M1388.85 283.597L1420.51 283.597L1436.33 311.013L1420.51 338.429L1388.85 338.429L1373.02 311.013L1388.85 283.597Z" fill="white"/>
<path opacity="0.05" d="M831.951 287.783L863.608 287.783L879.437 315.199L863.608 342.615L831.951 342.615L816.122 315.199L831.951 287.783Z" fill="white"/>
<path opacity="0.05" d="M387.222 354.149L418.879 354.149L434.708 381.565L418.879 408.981L387.222 408.981L371.393 381.565L387.222 354.149Z" fill="white"/>
<path opacity="0.05" d="M943.324 350.334L974.981 350.334L990.81 377.75L974.981 405.167L943.324 405.167L927.495 377.75L943.324 350.334Z" fill="white"/>
<path opacity="0.05" d="M498.595 416.701L530.252 416.701L546.081 444.117L530.252 471.533L498.595 471.533L482.766 444.117L498.595 416.701Z" fill="white"/>
<path opacity="0.05" d="M1054.7 412.887L1086.35 412.887L1102.18 440.303L1086.35 467.719L1054.7 467.719L1038.87 440.303L1054.7 412.887Z" fill="white"/>
<path opacity="0.05" d="M108.789 261.083L140.447 261.083L156.275 288.5L140.447 315.916L108.789 315.916L92.9605 288.5L108.789 261.083Z" fill="white"/>
<path opacity="0.05" d="M1221.79 253.083L1253.45 253.083L1269.28 280.5L1253.45 307.916L1221.79 307.916L1205.96 280.5L1221.79 253.083Z" fill="white"/>
<path opacity="0.05" d="M664.891 257.269L696.549 257.269L712.378 284.686L696.549 312.102L664.891 312.102L649.063 284.686L664.891 257.269Z" fill="white"/>
<path opacity="0.05" d="M164.476 292.36L196.133 292.36L211.962 319.776L196.133 347.192L164.476 347.192L148.647 319.776L164.476 292.36Z" fill="white"/>
<path opacity="0.05" d="M1277.48 284.36L1309.13 284.36L1324.96 311.776L1309.13 339.192L1277.48 339.192L1261.65 311.776L1277.48 284.36Z" fill="white"/>
<path opacity="0.05" d="M164.476 545.619L196.133 545.619L211.962 573.035L196.133 600.451L164.476 600.451L148.647 573.035L164.476 545.619Z" fill="white"/>
<path opacity="0.05" d="M1277.48 537.619L1309.13 537.619L1324.96 565.035L1309.13 592.451L1277.48 592.451L1261.65 565.035L1277.48 537.619Z" fill="white"/>
<path opacity="0.05" d="M164.476 482.304L196.133 482.304L211.962 509.72L196.133 537.136L164.476 537.136L148.647 509.72L164.476 482.304Z" fill="white"/>
<path opacity="0.05" d="M1277.48 474.304L1309.13 474.304L1324.96 501.72L1309.13 529.136L1277.48 529.136L1261.65 501.72L1277.48 474.304Z" fill="white"/>
<path opacity="0.05" d="M720.578 288.545L752.235 288.545L768.064 315.961L752.235 343.378L720.578 343.378L704.749 315.961L720.578 288.545Z" fill="white"/>
<path opacity="0.05" d="M720.578 351.86L752.235 351.86L768.064 379.276L752.235 406.692L720.578 406.692L704.749 379.276L720.578 351.86Z" fill="white"/>
<path opacity="0.05" d="M720.578 415.175L752.235 415.175L768.064 442.591L752.235 470.007L720.578 470.007L704.749 442.591L720.578 415.175Z" fill="white"/>
<path opacity="0.05" d="M720.578 478.49L752.235 478.49L768.064 505.906L752.235 533.322L720.578 533.322L704.749 505.906L720.578 478.49Z" fill="white"/>
<path opacity="0.05" d="M720.578 541.805L752.235 541.805L768.064 569.221L752.235 596.637L720.578 596.637L704.749 569.221L720.578 541.805Z" fill="white"/>
<path opacity="0.05" d="M275.849 354.912L307.506 354.912L323.335 382.328L307.506 409.744L275.849 409.744L260.02 382.328L275.849 354.912Z" fill="white"/>
<path opacity="0.05" d="M1388.85 346.912L1420.51 346.912L1436.33 374.328L1420.51 401.744L1388.85 401.744L1373.02 374.328L1388.85 346.912Z" fill="white"/>
<path opacity="0.05" d="M831.951 351.098L863.608 351.098L879.437 378.514L863.608 405.93L831.951 405.93L816.122 378.514L831.951 351.098Z" fill="white"/>
<path opacity="0.05" d="M331.535 386.187L363.193 386.187L379.021 413.604L363.193 441.02L331.535 441.02L315.707 413.604L331.535 386.187Z" fill="white"/>
<path opacity="0.05" d="M1444.54 378.187L1476.19 378.187L1492.02 405.604L1476.19 433.02L1444.54 433.02L1428.71 405.604L1444.54 378.187Z" fill="white"/>
<path opacity="0.05" d="M331.535 449.502L363.193 449.502L379.021 476.918L363.193 504.335L331.535 504.335L315.707 476.918L331.535 449.502Z" fill="white"/>
<path opacity="0.05" d="M1444.54 441.502L1476.19 441.502L1492.02 468.918L1476.19 496.335L1444.54 496.335L1428.71 468.918L1444.54 441.502Z" fill="white"/>
<path opacity="0.05" d="M887.638 382.373L919.295 382.373L935.124 409.79L919.295 437.206L887.638 437.206L871.809 409.79L887.638 382.373Z" fill="white"/>
<path opacity="0.05" d="M887.638 445.688L919.295 445.688L935.124 473.105L919.295 500.521L887.638 500.521L871.809 473.105L887.638 445.688Z" fill="white"/>
<path opacity="0.05" d="M887.638 509.003L919.295 509.003L935.124 536.419L919.295 563.836L887.638 563.836L871.809 536.419L887.638 509.003Z" fill="white"/>
<path opacity="0.05" d="M887.638 572.318L919.295 572.318L935.124 599.734L919.295 627.15L887.638 627.15L871.809 599.734L887.638 572.318Z" fill="white"/>
<path opacity="0.05" d="M387.222 417.464L418.879 417.464L434.708 444.88L418.879 472.296L387.222 472.296L371.393 444.88L387.222 417.464Z" fill="white"/>
<path opacity="0.05" d="M943.324 413.649L974.981 413.649L990.81 441.065L974.981 468.482L943.324 468.482L927.495 441.065L943.324 413.649Z" fill="white"/>
<path opacity="0.05" d="M442.908 448.74L474.566 448.74L490.394 476.156L474.566 503.572L442.908 503.572L427.08 476.156L442.908 448.74Z" fill="white"/>
<path opacity="0.05" d="M999.011 444.925L1030.67 444.925L1046.5 472.341L1030.67 499.757L999.011 499.757L983.182 472.341L999.011 444.925Z" fill="white"/>
<path opacity="0.05" d="M498.595 480.016L530.252 480.016L546.081 507.432L530.252 534.848L498.595 534.848L482.766 507.432L498.595 480.016Z" fill="white"/>
<path opacity="0.05" d="M1054.7 476.202L1086.35 476.202L1102.18 503.618L1086.35 531.034L1054.7 531.034L1038.87 503.618L1054.7 476.202Z" fill="white"/>
<path opacity="0.05" d="M-2.58389 261.847L29.0735 261.847L44.9022 289.263L29.0735 316.679L-2.58389 316.679L-18.4126 289.263L-2.58389 261.847Z" fill="white"/>
<path opacity="0.05" d="M1110.42 253.847L1142.07 253.847L1157.9 281.263L1142.07 308.679L1110.42 308.679L1094.59 281.263L1110.42 253.847Z" fill="white"/>
<path opacity="0.05" d="M553.518 258.032L585.176 258.032L601.005 285.448L585.176 312.864L553.518 312.864L537.69 285.448L553.518 258.032Z" fill="white"/>
<path opacity="0.05" d="M53.1026 293.122L84.76 293.122L100.589 320.539L84.76 347.955L53.1026 347.955L37.2739 320.539L53.1026 293.122Z" fill="white"/>
<path opacity="0.05" d="M1166.1 285.122L1197.76 285.122L1213.59 312.539L1197.76 339.955L1166.1 339.955L1150.27 312.539L1166.1 285.122Z" fill="white"/>
<path opacity="0.05" d="M609.205 289.309L640.862 289.309L656.691 316.725L640.862 344.141L609.205 344.141L593.376 316.725L609.205 289.309Z" fill="white"/>
<path opacity="0.05" d="M220.162 386.951L251.82 386.951L267.648 414.367L251.82 441.783L220.162 441.783L204.334 414.367L220.162 386.951Z" fill="white"/>
<path opacity="0.05" d="M1333.16 378.951L1364.82 378.951L1380.65 406.367L1364.82 433.783L1333.16 433.783L1317.33 406.367L1333.16 378.951Z" fill="white"/>
<path opacity="0.05" d="M776.265 383.136L807.922 383.136L823.751 410.552L807.922 437.968L776.265 437.968L760.436 410.552L776.265 383.136Z" fill="white"/>
<path opacity="0.05" d="M442.908 512.054L474.566 512.054L490.394 539.47L474.566 566.886L442.908 566.886L427.08 539.47L442.908 512.054Z" fill="white"/>
<path opacity="0.05" d="M999.011 508.24L1030.67 508.24L1046.5 535.656L1030.67 563.072L999.011 563.072L983.182 535.656L999.011 508.24Z" fill="white"/>
<path opacity="0.05" d="M-2.58389 325.162L29.0735 325.162L44.9022 352.578L29.0735 379.994L-2.58389 379.994L-18.4126 352.578L-2.58389 325.162Z" fill="white"/>
<path opacity="0.05" d="M1110.42 317.162L1142.07 317.162L1157.9 344.578L1142.07 371.994L1110.42 371.994L1094.59 344.578L1110.42 317.162Z" fill="white"/>
<path opacity="0.05" d="M553.518 321.347L585.176 321.347L601.005 348.763L585.176 376.179L553.518 376.179L537.69 348.763L553.518 321.347Z" fill="white"/>
<path opacity="0.05" d="M53.1026 356.437L84.76 356.437L100.589 383.854L84.76 411.27L53.1026 411.27L37.2739 383.854L53.1026 356.437Z" fill="white"/>
<path opacity="0.05" d="M1166.1 348.437L1197.76 348.437L1213.59 375.854L1197.76 403.27L1166.1 403.27L1150.27 375.854L1166.1 348.437Z" fill="white"/>
<path opacity="0.05" d="M53.1026 419.752L84.76 419.752L100.589 447.168L84.76 474.584L53.1026 474.584L37.2739 447.168L53.1026 419.752Z" fill="white"/>
<path opacity="0.05" d="M1166.1 411.752L1197.76 411.752L1213.59 439.168L1197.76 466.584L1166.1 466.584L1150.27 439.168L1166.1 411.752Z" fill="white"/>
<path opacity="0.05" d="M609.205 352.623L640.862 352.623L656.691 380.039L640.862 407.455L609.205 407.455L593.376 380.039L609.205 352.623Z" fill="white"/>
<path opacity="0.05" d="M108.789 387.713L140.447 387.713L156.275 415.129L140.447 442.546L108.789 442.546L92.9605 415.129L108.789 387.713Z" fill="white"/>
<path opacity="0.05" d="M1221.79 379.713L1253.45 379.713L1269.28 407.129L1253.45 434.546L1221.79 434.546L1205.96 407.129L1221.79 379.713Z" fill="white"/>
<path opacity="0.05" d="M664.891 383.899L696.549 383.899L712.378 411.315L696.549 438.731L664.891 438.731L649.063 411.315L664.891 383.899Z" fill="white"/>
<path opacity="0.05" d="M275.849 481.541L307.506 481.541L323.335 508.958L307.506 536.374L275.849 536.374L260.02 508.958L275.849 481.541Z" fill="white"/>
<path opacity="0.05" d="M1388.85 473.541L1420.51 473.541L1436.33 500.958L1420.51 528.374L1388.85 528.374L1373.02 500.958L1388.85 473.541Z" fill="white"/>
<path opacity="0.05" d="M831.951 477.727L863.608 477.727L879.437 505.143L863.608 532.559L831.951 532.559L816.122 505.143L831.951 477.727Z" fill="white"/>
<path opacity="0.05" d="M387.222 544.093L418.879 544.093L434.708 571.509L418.879 598.925L387.222 598.925L371.393 571.509L387.222 544.093Z" fill="white"/>
<path opacity="0.05" d="M387.222 607.408L418.879 607.408L434.708 634.824L418.879 662.24L387.222 662.24L371.393 634.824L387.222 607.408Z" fill="white"/>
<path opacity="0.05" d="M943.324 540.279L974.981 540.279L990.81 567.695L974.981 595.111L943.324 595.111L927.495 567.695L943.324 540.279Z" fill="white"/>
<path opacity="0.05" d="M442.908 575.369L474.566 575.369L490.394 602.785L474.566 630.201L442.908 630.201L427.08 602.785L442.908 575.369Z" fill="white"/>
<path opacity="0.05" d="M999.011 571.555L1030.67 571.555L1046.5 598.971L1030.67 626.387L999.011 626.387L983.182 598.971L999.011 571.555Z" fill="white"/>
<path opacity="0.05" d="M498.595 606.645L530.252 606.645L546.081 634.061L530.252 661.477L498.595 661.477L482.766 634.061L498.595 606.645Z" fill="white"/>
<path opacity="0.05" d="M1054.7 602.831L1086.35 602.831L1102.18 630.247L1086.35 657.663L1054.7 657.663L1038.87 630.247L1054.7 602.831Z" fill="white"/>
<path opacity="0.05" d="M108.789 451.028L140.447 451.028L156.275 478.444L140.447 505.86L108.789 505.86L92.9605 478.444L108.789 451.028Z" fill="white"/>
<path opacity="0.05" d="M1221.79 443.028L1253.45 443.028L1269.28 470.444L1253.45 497.86L1221.79 497.86L1205.96 470.444L1221.79 443.028Z" fill="white"/>
<path opacity="0.05" d="M664.891 447.214L696.549 447.214L712.378 474.63L696.549 502.046L664.891 502.046L649.063 474.63L664.891 447.214Z" fill="white"/>
<path opacity="0.05" d="M220.162 513.58L251.82 513.58L267.648 540.996L251.82 568.412L220.162 568.412L204.334 540.996L220.162 513.58Z" fill="white"/>
<path opacity="0.05" d="M1333.16 505.58L1364.82 505.58L1380.65 532.996L1364.82 560.412L1333.16 560.412L1317.33 532.996L1333.16 505.58Z" fill="white"/>
<path opacity="0.05" d="M776.265 509.766L807.922 509.766L823.751 537.182L807.922 564.598L776.265 564.598L760.436 537.182L776.265 509.766Z" fill="white"/>
<path opacity="0.05" d="M275.849 544.856L307.506 544.856L323.335 572.272L307.506 599.688L275.849 599.688L260.02 572.272L275.849 544.856Z" fill="white"/>
<path opacity="0.05" d="M1388.85 536.856L1420.51 536.856L1436.33 564.272L1420.51 591.688L1388.85 591.688L1373.02 564.272L1388.85 536.856Z" fill="white"/>
<path opacity="0.05" d="M275.849 608.171L307.506 608.171L323.335 635.587L307.506 663.003L275.849 663.003L260.02 635.587L275.849 608.171Z" fill="white"/>
<path opacity="0.05" d="M1388.85 600.171L1420.51 600.171L1436.33 627.587L1420.51 655.003L1388.85 655.003L1373.02 627.587L1388.85 600.171Z" fill="white"/>
<path opacity="0.05" d="M275.849 671.486L307.506 671.486L323.335 698.902L307.506 726.318L275.849 726.318L260.02 698.902L275.849 671.486Z" fill="white"/>
<path opacity="0.05" d="M1388.85 663.486L1420.51 663.486L1436.33 690.902L1420.51 718.318L1388.85 718.318L1373.02 690.902L1388.85 663.486Z" fill="white"/>
<path opacity="0.05" d="M831.951 541.042L863.608 541.042L879.437 568.458L863.608 595.874L831.951 595.874L816.122 568.458L831.951 541.042Z" fill="white"/>
<path opacity="0.05" d="M-2.58389 451.791L29.0735 451.791L44.9022 479.207L29.0735 506.623L-2.58389 506.623L-18.4126 479.207L-2.58389 451.791Z" fill="white"/>
<path opacity="0.05" d="M1110.42 443.791L1142.07 443.791L1157.9 471.207L1142.07 498.623L1110.42 498.623L1094.59 471.207L1110.42 443.791Z" fill="white"/>
<path opacity="0.05" d="M553.518 447.977L585.176 447.977L601.005 475.393L585.176 502.809L553.518 502.809L537.69 475.393L553.518 447.977Z" fill="white"/>
<path opacity="0.05" d="M53.1026 483.067L84.76 483.067L100.589 510.483L84.76 537.899L53.1026 537.899L37.2739 510.483L53.1026 483.067Z" fill="white"/>
<path opacity="0.05" d="M1166.1 475.067L1197.76 475.067L1213.59 502.483L1197.76 529.899L1166.1 529.899L1150.27 502.483L1166.1 475.067Z" fill="white"/>
<path opacity="0.05" d="M609.205 479.253L640.862 479.253L656.691 506.669L640.862 534.085L609.205 534.085L593.376 506.669L609.205 479.253Z" fill="white"/>
<path opacity="0.05" d="M331.535 639.447L363.193 639.447L379.021 666.863L363.193 694.279L331.535 694.279L315.707 666.863L331.535 639.447Z" fill="white"/>
<path opacity="0.05" d="M1444.54 631.447L1476.19 631.447L1492.02 658.863L1476.19 686.279L1444.54 686.279L1428.71 658.863L1444.54 631.447Z" fill="white"/>
<path opacity="0.05" d="M887.638 635.633L919.295 635.633L935.124 663.049L919.295 690.465L887.638 690.465L871.809 663.049L887.638 635.633Z" fill="white"/>
<path opacity="0.05" d="M387.222 670.723L418.879 670.723L434.708 698.139L418.879 725.555L387.222 725.555L371.393 698.139L387.222 670.723Z" fill="white"/>
<path opacity="0.05" d="M943.324 666.909L974.981 666.909L990.81 694.325L974.981 721.741L943.324 721.741L927.495 694.325L943.324 666.909Z" fill="white"/>
<path opacity="0.05" d="M442.908 701.999L474.566 701.999L490.394 729.415L474.566 756.831L442.908 756.831L427.08 729.415L442.908 701.999Z" fill="white"/>
<path opacity="0.05" d="M999.011 698.184L1030.67 698.184L1046.5 725.601L1030.67 753.017L999.011 753.017L983.182 725.601L999.011 698.184Z" fill="white"/>
<path opacity="0.05" d="M53.1026 546.382L84.76 546.382L100.589 573.798L84.76 601.214L53.1026 601.214L37.2739 573.798L53.1026 546.382Z" fill="white"/>
<path opacity="0.05" d="M1166.1 538.382L1197.76 538.382L1213.59 565.798L1197.76 593.214L1166.1 593.214L1150.27 565.798L1166.1 538.382Z" fill="white"/>
<path opacity="0.05" d="M609.205 542.568L640.862 542.568L656.691 569.984L640.862 597.4L609.205 597.4L593.376 569.984L609.205 542.568Z" fill="white"/>
<path opacity="0.05" d="M108.789 577.658L140.447 577.658L156.275 605.074L140.447 632.49L108.789 632.49L92.9605 605.074L108.789 577.658Z" fill="white"/>
<path opacity="0.05" d="M1221.79 569.658L1253.45 569.658L1269.28 597.074L1253.45 624.49L1221.79 624.49L1205.96 597.074L1221.79 569.658Z" fill="white"/>
<path opacity="0.05" d="M664.891 573.844L696.549 573.844L712.378 601.26L696.549 628.676L664.891 628.676L649.063 601.26L664.891 573.844Z" fill="white"/>
<path opacity="0.05" d="M164.476 608.934L196.133 608.934L211.962 636.35L196.133 663.766L164.476 663.766L148.647 636.35L164.476 608.934Z" fill="white"/>
<path opacity="0.05" d="M1277.48 600.934L1309.13 600.934L1324.96 628.35L1309.13 655.766L1277.48 655.766L1261.65 628.35L1277.48 600.934Z" fill="white"/>
<path opacity="0.05" d="M720.578 605.12L752.235 605.12L768.064 632.536L752.235 659.952L720.578 659.952L704.749 632.536L720.578 605.12Z" fill="white"/>
<path opacity="0.05" d="M220.162 640.209L251.82 640.209L267.648 667.625L251.82 695.042L220.162 695.042L204.334 667.625L220.162 640.209Z" fill="white"/>
<path opacity="0.05" d="M1333.16 632.209L1364.82 632.209L1380.65 659.625L1364.82 687.042L1333.16 687.042L1317.33 659.625L1333.16 632.209Z" fill="white"/>
<path opacity="0.05" d="M776.265 636.395L807.922 636.395L823.751 663.812L807.922 691.228L776.265 691.228L760.436 663.812L776.265 636.395Z" fill="white"/>
<path opacity="0.05" d="M387.222 734.038L418.879 734.038L434.708 761.454L418.879 788.87L387.222 788.87L371.393 761.454L387.222 734.038Z" fill="white"/>
<path opacity="0.05" d="M943.324 730.224L974.981 730.224L990.81 757.64L974.981 785.056L943.324 785.056L927.495 757.64L943.324 730.224Z" fill="white"/>
<path opacity="0.05" d="M442.908 765.313L474.566 765.313L490.394 792.73L474.566 820.146L442.908 820.146L427.08 792.73L442.908 765.313Z" fill="white"/>
<path opacity="0.05" d="M999.011 761.499L1030.67 761.499L1046.5 788.916L1030.67 816.332L999.011 816.332L983.182 788.916L999.011 761.499Z" fill="white"/>
<path opacity="0.05" d="M1054.7 792.775L1086.35 792.775L1102.18 820.191L1086.35 847.608L1054.7 847.608L1038.87 820.191L1054.7 792.775Z" fill="white"/>
<path opacity="0.05" d="M108.789 640.973L140.447 640.973L156.275 668.389L140.447 695.805L108.789 695.805L92.9605 668.389L108.789 640.973Z" fill="white"/>
<path opacity="0.05" d="M1221.79 632.973L1253.45 632.973L1269.28 660.389L1253.45 687.805L1221.79 687.805L1205.96 660.389L1221.79 632.973Z" fill="white"/>
<path opacity="0.05" d="M664.891 637.158L696.549 637.158L712.378 664.574L696.549 691.99L664.891 691.99L649.063 664.574L664.891 637.158Z" fill="white"/>
<path opacity="0.05" d="M220.162 703.524L251.82 703.524L267.648 730.94L251.82 758.357L220.162 758.357L204.334 730.94L220.162 703.524Z" fill="white"/>
<path opacity="0.05" d="M1333.16 695.524L1364.82 695.524L1380.65 722.94L1364.82 750.357L1333.16 750.357L1317.33 722.94L1333.16 695.524Z" fill="white"/>
<path opacity="0.05" d="M776.265 699.71L807.922 699.71L823.751 727.126L807.922 754.543L776.265 754.543L760.436 727.126L776.265 699.71Z" fill="white"/>
<path opacity="0.05" d="M275.849 734.8L307.506 734.8L323.335 762.216L307.506 789.632L275.849 789.632L260.02 762.216L275.849 734.8Z" fill="white"/>
<path opacity="0.05" d="M1388.85 726.8L1420.51 726.8L1436.33 754.216L1420.51 781.632L1388.85 781.632L1373.02 754.216L1388.85 726.8Z" fill="white"/>
<path opacity="0.05" d="M831.951 730.986L863.608 730.986L879.437 758.402L863.608 785.818L831.951 785.818L816.122 758.402L831.951 730.986Z" fill="white"/>
<path opacity="0.05" d="M331.535 766.077L363.193 766.077L379.021 793.493L363.193 820.909L331.535 820.909L315.707 793.493L331.535 766.077Z" fill="white"/>
<path opacity="0.05" d="M1444.54 758.077L1476.19 758.077L1492.02 785.493L1476.19 812.909L1444.54 812.909L1428.71 785.493L1444.54 758.077Z" fill="white"/>
<path opacity="0.05" d="M887.638 762.262L919.295 762.262L935.124 789.678L919.295 817.094L887.638 817.094L871.809 789.678L887.638 762.262Z" fill="white"/>
<path opacity="0.05" d="M-2.58389 641.735L29.0735 641.735L44.9022 669.151L29.0735 696.567L-2.58389 696.567L-18.4126 669.151L-2.58389 641.735Z" fill="white"/>
<path opacity="0.05" d="M1110.42 633.735L1142.07 633.735L1157.9 661.151L1142.07 688.567L1110.42 688.567L1094.59 661.151L1110.42 633.735Z" fill="white"/>
<path opacity="0.05" d="M553.518 637.921L585.176 637.921L601.005 665.337L585.176 692.754L553.518 692.754L537.69 665.337L553.518 637.921Z" fill="white"/>
<path opacity="0.05" d="M553.518 701.236L585.176 701.236L601.005 728.652L585.176 756.068L553.518 756.068L537.69 728.652L553.518 701.236Z" fill="white"/>
<path opacity="0.05" d="M553.518 764.551L585.176 764.551L601.005 791.967L585.176 819.383L553.518 819.383L537.69 791.967L553.518 764.551Z" fill="white"/>
<path opacity="0.05" d="M53.1026 673.011L84.76 673.011L100.589 700.427L84.76 727.843L53.1026 727.843L37.2739 700.427L53.1026 673.011Z" fill="white"/>
<path opacity="0.05" d="M1166.1 665.011L1197.76 665.011L1213.59 692.427L1197.76 719.843L1166.1 719.843L1150.27 692.427L1166.1 665.011Z" fill="white"/>
<path opacity="0.05" d="M53.1026 736.326L84.76 736.326L100.589 763.742L84.76 791.158L53.1026 791.158L37.2739 763.742L53.1026 736.326Z" fill="white"/>
<path opacity="0.05" d="M1166.1 728.326L1197.76 728.326L1213.59 755.742L1197.76 783.158L1166.1 783.158L1150.27 755.742L1166.1 728.326Z" fill="white"/>
<path opacity="0.05" d="M609.205 669.197L640.862 669.197L656.691 696.613L640.862 724.029L609.205 724.029L593.376 696.613L609.205 669.197Z" fill="white"/>
<path opacity="0.05" d="M164.476 735.563L196.133 735.563L211.962 762.98L196.133 790.396L164.476 790.396L148.647 762.98L164.476 735.563Z" fill="white"/>
<path opacity="0.05" d="M1277.48 727.563L1309.13 727.563L1324.96 754.98L1309.13 782.396L1277.48 782.396L1261.65 754.98L1277.48 727.563Z" fill="white"/>
<path opacity="0.05" d="M720.578 731.749L752.235 731.749L768.064 759.165L752.235 786.581L720.578 786.581L704.749 759.165L720.578 731.749Z" fill="white"/>
<path opacity="0.05" d="M-2.58389 515.643L29.0735 515.643L44.9022 543.059L29.0735 570.475L-2.58389 570.475L-18.4126 543.059L-2.58389 515.643Z" fill="white"/>
<path opacity="0.05" d="M1110.42 507.643L1142.07 507.643L1157.9 535.059L1142.07 562.475L1110.42 562.475L1094.59 535.059L1110.42 507.643Z" fill="white"/>
<path opacity="0.05" d="M553.518 511.829L585.176 511.829L601.005 539.245L585.176 566.661L553.518 566.661L537.69 539.245L553.518 511.829Z" fill="white"/>
<path opacity="0.05" d="M331.535 703.299L363.193 703.299L379.021 730.715L363.193 758.131L331.535 758.131L315.707 730.715L331.535 703.299Z" fill="white"/>
<path opacity="0.05" d="M1444.54 695.299L1476.19 695.299L1492.02 722.715L1476.19 750.131L1444.54 750.131L1428.71 722.715L1444.54 695.299Z" fill="white"/>
<path opacity="0.05" d="M887.638 699.485L919.295 699.485L935.124 726.901L919.295 754.317L887.638 754.317L871.809 726.901L887.638 699.485Z" fill="white"/>
<path opacity="0.05" d="M498.595 797.127L530.252 797.127L546.081 824.543L530.252 851.959L498.595 851.959L482.766 824.543L498.595 797.127Z" fill="white"/>
<path opacity="0.05" d="M-2.58389 578.957L29.0735 578.957L44.9022 606.374L29.0735 633.79L-2.58389 633.79L-18.4126 606.374L-2.58389 578.957Z" fill="white"/>
<path opacity="0.05" d="M1110.42 570.957L1142.07 570.957L1157.9 598.374L1142.07 625.79L1110.42 625.79L1094.59 598.374L1110.42 570.957Z" fill="white"/>
<path opacity="0.05" d="M553.518 575.143L585.176 575.143L601.005 602.56L585.176 629.976L553.518 629.976L537.69 602.56L553.518 575.143Z" fill="white"/>
<path opacity="0.05" d="M275.849 798.652L307.506 798.652L323.335 826.068L307.506 853.484L275.849 853.484L260.02 826.068L275.849 798.652Z" fill="white"/>
<path opacity="0.05" d="M1388.85 790.652L1420.51 790.652L1436.33 818.068L1420.51 845.484L1388.85 845.484L1373.02 818.068L1388.85 790.652Z" fill="white"/>
<path opacity="0.05" d="M275.849 861.967L307.506 861.967L323.335 889.383L307.506 916.799L275.849 916.799L260.02 889.383L275.849 861.967Z" fill="white"/>
<path opacity="0.05" d="M1388.85 853.967L1420.51 853.967L1436.33 881.383L1420.51 908.799L1388.85 908.799L1373.02 881.383L1388.85 853.967Z" fill="white"/>
<path opacity="0.05" d="M498.595 860.442L530.252 860.442L546.081 887.858L530.252 915.274L498.595 915.274L482.766 887.858L498.595 860.442Z" fill="white"/>
<path opacity="0.05" d="M1054.7 856.627L1086.35 856.627L1102.18 884.043L1086.35 911.46L1054.7 911.46L1038.87 884.043L1054.7 856.627Z" fill="white"/>
<path opacity="0.05" d="M108.789 704.825L140.447 704.825L156.275 732.241L140.447 759.657L108.789 759.657L92.9605 732.241L108.789 704.825Z" fill="white"/>
<path opacity="0.05" d="M1221.79 696.825L1253.45 696.825L1269.28 724.241L1253.45 751.657L1221.79 751.657L1205.96 724.241L1221.79 696.825Z" fill="white"/>
<path opacity="0.05" d="M664.891 701.01L696.549 701.01L712.378 728.426L696.549 755.842L664.891 755.842L649.063 728.426L664.891 701.01Z" fill="white"/>
<path opacity="0.05" d="M331.535 829.928L363.193 829.928L379.021 857.344L363.193 884.76L331.535 884.76L315.707 857.344L331.535 829.928Z" fill="white"/>
<path opacity="0.05" d="M1444.54 821.928L1476.19 821.928L1492.02 849.344L1476.19 876.76L1444.54 876.76L1428.71 849.344L1444.54 821.928Z" fill="white"/>
<path opacity="0.05" d="M887.638 826.114L919.295 826.114L935.124 853.53L919.295 880.946L887.638 880.946L871.809 853.53L887.638 826.114Z" fill="white"/>
<path opacity="0.05" d="M387.222 861.205L418.879 861.205L434.708 888.621L418.879 916.037L387.222 916.037L371.393 888.621L387.222 861.205Z" fill="white"/>
<path opacity="0.05" d="M943.324 857.39L974.981 857.39L990.81 884.806L974.981 912.222L943.324 912.222L927.495 884.806L943.324 857.39Z" fill="white"/>
<path opacity="0.05" d="M108.789 768.139L140.447 768.139L156.275 795.555L140.447 822.971L108.789 822.971L92.9605 795.555L108.789 768.139Z" fill="white"/>
<path opacity="0.05" d="M1221.79 760.139L1253.45 760.139L1269.28 787.555L1253.45 814.971L1221.79 814.971L1205.96 787.555L1221.79 760.139Z" fill="white"/>
<path opacity="0.05" d="M664.891 764.325L696.549 764.325L712.378 791.741L696.549 819.157L664.891 819.157L649.063 791.741L664.891 764.325Z" fill="white"/>
<path opacity="0.05" d="M164.476 799.415L196.133 799.415L211.962 826.832L196.133 854.248L164.476 854.248L148.647 826.832L164.476 799.415Z" fill="white"/>
<path opacity="0.05" d="M1277.48 791.415L1309.13 791.415L1324.96 818.832L1309.13 846.248L1277.48 846.248L1261.65 818.832L1277.48 791.415Z" fill="white"/>
<path opacity="0.05" d="M720.578 795.601L752.235 795.601L768.064 823.017L752.235 850.433L720.578 850.433L704.749 823.017L720.578 795.601Z" fill="white"/>
<path opacity="0.05" d="M220.162 830.691L251.82 830.691L267.648 858.107L251.82 885.524L220.162 885.524L204.334 858.107L220.162 830.691Z" fill="white"/>
<path opacity="0.05" d="M1333.16 822.691L1364.82 822.691L1380.65 850.107L1364.82 877.524L1333.16 877.524L1317.33 850.107L1333.16 822.691Z" fill="white"/>
<path opacity="0.05" d="M776.265 826.877L807.922 826.877L823.751 854.293L807.922 881.709L776.265 881.709L760.436 854.293L776.265 826.877Z" fill="white"/>
<path opacity="0.05" d="M387.222 924.519L418.879 924.519L434.708 951.935L418.879 979.351L387.222 979.351L371.393 951.935L387.222 924.519Z" fill="white"/>
<path opacity="0.05" d="M943.324 920.705L974.981 920.705L990.81 948.121L974.981 975.537L943.324 975.537L927.495 948.121L943.324 920.705Z" fill="white"/>
<path opacity="0.05" d="M442.908 955.795L474.566 955.795L490.394 983.211L474.566 1010.63L442.908 1010.63L427.08 983.211L442.908 955.795Z" fill="white"/>
<path opacity="0.05" d="M442.908 892.48L474.566 892.48L490.394 919.896L474.566 947.313L442.908 947.313L427.08 919.896L442.908 892.48Z" fill="white"/>
<path opacity="0.05" d="M442.908 829.165L474.566 829.165L490.394 856.582L474.566 883.998L442.908 883.998L427.08 856.582L442.908 829.165Z" fill="white"/>
<path opacity="0.05" d="M442.908 1019.11L474.566 1019.11L490.394 1046.53L474.566 1073.94L442.908 1073.94L427.08 1046.53L442.908 1019.11Z" fill="white"/>
<path opacity="0.05" d="M999.011 951.981L1030.67 951.981L1046.5 979.397L1030.67 1006.81L999.011 1006.81L983.182 979.397L999.011 951.981Z" fill="white"/>
<path opacity="0.05" d="M999.011 888.666L1030.67 888.666L1046.5 916.083L1030.67 943.499L999.011 943.499L983.182 916.083L999.011 888.666Z" fill="white"/>
<path opacity="0.05" d="M999.011 825.351L1030.67 825.351L1046.5 852.768L1030.67 880.184L999.011 880.184L983.182 852.768L999.011 825.351Z" fill="white"/>
<path opacity="0.05" d="M498.595 987.071L530.252 987.071L546.081 1014.49L530.252 1041.9L498.595 1041.9L482.766 1014.49L498.595 987.071Z" fill="white"/>
<path opacity="0.05" d="M1054.7 983.257L1086.35 983.257L1102.18 1010.67L1086.35 1038.09L1054.7 1038.09L1038.87 1010.67L1054.7 983.257Z" fill="white"/>
<path opacity="0.05" d="M220.162 894.006L251.82 894.006L267.648 921.422L251.82 948.838L220.162 948.838L204.334 921.422L220.162 894.006Z" fill="white"/>
<path opacity="0.05" d="M1333.16 886.006L1364.82 886.006L1380.65 913.422L1364.82 940.838L1333.16 940.838L1317.33 913.422L1333.16 886.006Z" fill="white"/>
<path opacity="0.05" d="M220.162 957.321L251.82 957.321L267.648 984.737L251.82 1012.15L220.162 1012.15L204.334 984.737L220.162 957.321Z" fill="white"/>
<path opacity="0.05" d="M1333.16 949.321L1364.82 949.321L1380.65 976.737L1364.82 1004.15L1333.16 1004.15L1317.33 976.737L1333.16 949.321Z" fill="white"/>
<path opacity="0.05" d="M220.162 1020.64L251.82 1020.64L267.648 1048.05L251.82 1075.47L220.162 1075.47L204.334 1048.05L220.162 1020.64Z" fill="white"/>
<path opacity="0.05" d="M1333.16 1012.64L1364.82 1012.64L1380.65 1040.05L1364.82 1067.47L1333.16 1067.47L1317.33 1040.05L1333.16 1012.64Z" fill="white"/>
<path opacity="0.05" d="M776.265 890.192L807.922 890.192L823.751 917.608L807.922 945.024L776.265 945.024L760.436 917.608L776.265 890.192Z" fill="white"/>
<path opacity="0.05" d="M331.535 956.558L363.193 956.558L379.021 983.974L363.193 1011.39L331.535 1011.39L315.707 983.974L331.535 956.558Z" fill="white"/>
<path opacity="0.05" d="M1444.54 948.558L1476.19 948.558L1492.02 975.974L1476.19 1003.39L1444.54 1003.39L1428.71 975.974L1444.54 948.558Z" fill="white"/>
<path opacity="0.05" d="M887.638 952.744L919.295 952.744L935.124 980.16L919.295 1007.58L887.638 1007.58L871.809 980.16L887.638 952.744Z" fill="white"/>
<path opacity="0.05" d="M887.638 889.429L919.295 889.429L935.124 916.845L919.295 944.261L887.638 944.261L871.809 916.845L887.638 889.429Z" fill="white"/>
<path opacity="0.05" d="M-2.58389 832.217L29.0735 832.217L44.9022 859.633L29.0735 887.049L-2.58389 887.049L-18.4126 859.633L-2.58389 832.217Z" fill="white"/>
<path opacity="0.05" d="M1110.42 824.217L1142.07 824.217L1157.9 851.633L1142.07 879.049L1110.42 879.049L1094.59 851.633L1110.42 824.217Z" fill="white"/>
<path opacity="0.05" d="M553.518 828.403L585.176 828.403L601.005 855.819L585.176 883.235L553.518 883.235L537.69 855.819L553.518 828.403Z" fill="white"/>
<path opacity="0.05" d="M53.1026 863.493L84.76 863.493L100.589 890.909L84.76 918.325L53.1026 918.325L37.2739 890.909L53.1026 863.493Z" fill="white"/>
<path opacity="0.05" d="M1166.1 855.493L1197.76 855.493L1213.59 882.909L1197.76 910.325L1166.1 910.325L1150.27 882.909L1166.1 855.493Z" fill="white"/>
<path opacity="0.05" d="M53.1026 800.178L84.76 800.178L100.589 827.594L84.76 855.01L53.1026 855.01L37.2739 827.594L53.1026 800.178Z" fill="white"/>
<path opacity="0.05" d="M1166.1 792.178L1197.76 792.178L1213.59 819.594L1197.76 847.01L1166.1 847.01L1150.27 819.594L1166.1 792.178Z" fill="white"/>
<path opacity="0.05" d="M609.205 859.679L640.862 859.679L656.691 887.095L640.862 914.511L609.205 914.511L593.376 887.095L609.205 859.679Z" fill="white"/>
<path opacity="0.05" d="M108.789 894.769L140.447 894.769L156.275 922.185L140.447 949.601L108.789 949.601L92.9605 922.185L108.789 894.769Z" fill="white"/>
<path opacity="0.05" d="M1221.79 886.769L1253.45 886.769L1269.28 914.185L1253.45 941.601L1221.79 941.601L1205.96 914.185L1221.79 886.769Z" fill="white"/>
<path opacity="0.05" d="M664.891 890.955L696.549 890.955L712.378 918.371L696.549 945.787L664.891 945.787L649.063 918.371L664.891 890.955Z" fill="white"/>
<path opacity="0.05" d="M275.849 988.597L307.506 988.597L323.335 1016.01L307.506 1043.43L275.849 1043.43L260.02 1016.01L275.849 988.597Z" fill="white"/>
<path opacity="0.05" d="M1388.85 980.597L1420.51 980.597L1436.33 1008.01L1420.51 1035.43L1388.85 1035.43L1373.02 1008.01L1388.85 980.597Z" fill="white"/>
<path opacity="0.05" d="M831.951 984.783L863.608 984.783L879.437 1012.2L863.608 1039.61L831.951 1039.61L816.122 1012.2L831.951 984.783Z" fill="white"/>
<path opacity="0.05" d="M108.789 958.083L140.447 958.083L156.275 985.5L140.447 1012.92L108.789 1012.92L92.9605 985.5L108.789 958.083Z" fill="white"/>
<path opacity="0.05" d="M1221.79 950.083L1253.45 950.083L1269.28 977.5L1253.45 1004.92L1221.79 1004.92L1205.96 977.5L1221.79 950.083Z" fill="white"/>
<path opacity="0.05" d="M664.891 954.269L696.549 954.269L712.378 981.686L696.549 1009.1L664.891 1009.1L649.063 981.686L664.891 954.269Z" fill="white"/>
<path opacity="0.05" d="M164.476 989.36L196.133 989.36L211.962 1016.78L196.133 1044.19L164.476 1044.19L148.647 1016.78L164.476 989.36Z" fill="white"/>
<path opacity="0.05" d="M1277.48 981.36L1309.13 981.36L1324.96 1008.78L1309.13 1036.19L1277.48 1036.19L1261.65 1008.78L1277.48 981.36Z" fill="white"/>
<path opacity="0.05" d="M720.578 985.545L752.235 985.545L768.064 1012.96L752.235 1040.38L720.578 1040.38L704.749 1012.96L720.578 985.545Z" fill="white"/>
<path opacity="0.05" d="M-2.58389 958.847L29.0735 958.847L44.9022 986.263L29.0735 1013.68L-2.58389 1013.68L-18.4126 986.263L-2.58389 958.847Z" fill="white"/>
<path opacity="0.05" d="M1110.42 950.847L1142.07 950.847L1157.9 978.263L1142.07 1005.68L1110.42 1005.68L1094.59 978.263L1110.42 950.847Z" fill="white"/>
<path opacity="0.05" d="M553.518 955.032L585.176 955.032L601.005 982.448L585.176 1009.86L553.518 1009.86L537.69 982.448L553.518 955.032Z" fill="white"/>
<path opacity="0.05" d="M53.1026 990.122L84.76 990.122L100.589 1017.54L84.76 1044.95L53.1026 1044.95L37.2739 1017.54L53.1026 990.122Z" fill="white"/>
<path opacity="0.05" d="M1166.1 982.122L1197.76 982.122L1213.59 1009.54L1197.76 1036.95L1166.1 1036.95L1150.27 1009.54L1166.1 982.122Z" fill="white"/>
<path opacity="0.05" d="M609.205 986.309L640.862 986.309L656.691 1013.72L640.862 1041.14L609.205 1041.14L593.376 1013.72L609.205 986.309Z" fill="white"/>
<path opacity="0.05" d="M-2.58389 1022.16L29.0735 1022.16L44.9022 1049.58L29.0735 1076.99L-2.58389 1076.99L-18.4126 1049.58L-2.58389 1022.16Z" fill="white"/>
<path opacity="0.05" d="M1110.42 1014.16L1142.07 1014.16L1157.9 1041.58L1142.07 1068.99L1110.42 1068.99L1094.59 1041.58L1110.42 1014.16Z" fill="white"/>
<path opacity="0.05" d="M553.518 1018.35L585.176 1018.35L601.005 1045.76L585.176 1073.18L553.518 1073.18L537.69 1045.76L553.518 1018.35Z" fill="white"/>
</g>
<defs>
<linearGradient id="paint0_linear_841_86" x1="720" y1="0" x2="720" y2="1024" gradientUnits="userSpaceOnUse">
<stop stop-color="#272727"/>
<stop offset="1" stop-color="#111111"/>
</linearGradient>
<clipPath id="clip0_841_86">
<rect width="1440" height="1024" fill="white"/>
</clipPath>
</defs>
</svg>
