<svg width="360" height="800" viewBox="0 0 360 800" fill="none" xmlns="http://www.w3.org/2000/svg">
<g clip-path="url(#clip0_681_1742)">
<rect width="360" height="800" fill="url(#paint0_linear_681_1742)"/>
<g opacity="0.2">
<path d="M128.258 -0.715387L158.239 -0.715387L173.229 25.2487L158.239 51.2128L128.258 51.2128L113.268 25.2487L128.258 -0.715387Z" fill="white"/>
<path d="M-25.7417 27.2846L4.23905 27.2846L19.2294 53.2487L4.23905 79.2128L-25.7417 79.2128L-40.7321 53.2487L-25.7417 27.2846Z" fill="white"/>
<path d="M-25.7417 204.285L4.23905 204.285L19.2294 230.249L4.23905 256.213L-25.7417 256.213L-40.7321 230.249L-25.7417 204.285Z" fill="white"/>
<path d="M-25.7417 381.285L4.23905 381.285L19.2294 407.249L4.23905 433.213L-25.7417 433.213L-40.7321 407.249L-25.7417 381.285Z" fill="white"/>
<path d="M-25.7417 499.285L4.23905 499.285L19.2294 525.249L4.23905 551.213L-25.7417 551.213L-40.7321 525.249L-25.7417 499.285Z" fill="white"/>
<path d="M-25.7417 617.285L4.23905 617.285L19.2294 643.249L4.23905 669.213L-25.7417 669.213L-40.7321 643.249L-25.7417 617.285Z" fill="white"/>
<path d="M128.258 59.2846L158.239 59.2846L173.229 85.2487L158.239 111.213L128.258 111.213L113.268 85.2487L128.258 59.2846Z" fill="white"/>
<path d="M-25.7417 87.2846L4.23905 87.2846L19.2294 113.249L4.23905 139.213L-25.7417 139.213L-40.7321 113.249L-25.7417 87.2846Z" fill="white"/>
<path d="M-25.7417 264.285L4.23905 264.285L19.2294 290.249L4.23905 316.213L-25.7417 316.213L-40.7321 290.249L-25.7417 264.285Z" fill="white"/>
<path d="M-25.7417 441.285L4.23905 441.285L19.2294 467.249L4.23905 493.213L-25.7417 493.213L-40.7321 467.249L-25.7417 441.285Z" fill="white"/>
<path d="M-25.7417 559.285L4.23905 559.285L19.2294 585.249L4.23905 611.213L-25.7417 611.213L-40.7321 585.249L-25.7417 559.285Z" fill="white"/>
<path d="M-25.7417 677.285L4.23905 677.285L19.2294 703.249L4.23905 729.213L-25.7417 729.213L-40.7321 703.249L-25.7417 677.285Z" fill="white"/>
<path d="M128.258 118.285L158.239 118.285L173.229 144.249L158.239 170.213L128.258 170.213L113.268 144.249L128.258 118.285Z" fill="white"/>
<path d="M26.2583 118.285L56.2391 118.285L71.2294 144.249L56.2391 170.213L26.2583 170.213L11.2679 144.249L26.2583 118.285Z" fill="white"/>
<path d="M26.2583 177.285L56.2391 177.285L71.2294 203.249L56.2391 229.213L26.2583 229.213L11.2679 203.249L26.2583 177.285Z" fill="white"/>
<path d="M26.2583 294.285L56.2391 294.285L71.2294 320.249L56.2391 346.213L26.2583 346.213L11.2679 320.249L26.2583 294.285Z" fill="white"/>
<path d="M77.2583 264.285L107.239 264.285L122.229 290.249L107.239 316.213L77.2583 316.213L62.2679 290.249L77.2583 264.285Z" fill="white"/>
<path d="M332.258 235.285L362.239 235.285L377.229 261.249L362.239 287.213L332.258 287.213L317.268 261.249L332.258 235.285Z" fill="white"/>
<path d="M332.258 527.285L362.239 527.285L377.229 553.249L362.239 579.213L332.258 579.213L317.268 553.249L332.258 527.285Z" fill="white"/>
<path d="M281.258 557.285L311.239 557.285L326.229 583.249L311.239 609.213L281.258 609.213L266.268 583.249L281.258 557.285Z" fill="white"/>
<path d="M230.258 587.285L260.239 587.285L275.229 613.249L260.239 639.213L230.258 639.213L215.268 613.249L230.258 587.285Z" fill="white"/>
<path d="M281.258 264.285L311.239 264.285L326.229 290.249L311.239 316.213L281.258 316.213L266.268 290.249L281.258 264.285Z" fill="white"/>
<path d="M230.258 293.285L260.239 293.285L275.229 319.249L260.239 345.213L230.258 345.213L215.268 319.249L230.258 293.285Z" fill="white"/>
<path d="M179.258 380.285L209.239 380.285L224.229 406.249L209.239 432.213L179.258 432.213L164.268 406.249L179.258 380.285Z" fill="white"/>
<path d="M332.258 177.285L362.239 177.285L377.229 203.249L362.239 229.213L332.258 229.213L317.268 203.249L332.258 177.285Z" fill="white"/>
<path d="M281.258 206.285L311.239 206.285L326.229 232.249L311.239 258.213L281.258 258.213L266.268 232.249L281.258 206.285Z" fill="white"/>
<path d="M230.258 235.285L260.239 235.285L275.229 261.249L260.239 287.213L230.258 287.213L215.268 261.249L230.258 235.285Z" fill="white"/>
<path d="M179.258 322.285L209.239 322.285L224.229 348.249L209.239 374.213L179.258 374.213L164.268 348.249L179.258 322.285Z" fill="white"/>
<path d="M26.2583 529.285L56.2391 529.285L71.2294 555.249L56.2391 581.213L26.2583 581.213L11.2679 555.249L26.2583 529.285Z" fill="white"/>
<path d="M26.2583 351.285L56.2391 351.285L71.2294 377.249L56.2391 403.213L26.2583 403.213L11.2679 377.249L26.2583 351.285Z" fill="white"/>
<path d="M77.2583 321.285L107.239 321.285L122.229 347.249L107.239 373.213L77.2583 373.213L62.2679 347.249L77.2583 321.285Z" fill="white"/>
<path d="M332.258 292.285L362.239 292.285L377.229 318.249L362.239 344.213L332.258 344.213L317.268 318.249L332.258 292.285Z" fill="white"/>
<path d="M332.258 584.285L362.239 584.285L377.229 610.249L362.239 636.213L332.258 636.213L317.268 610.249L332.258 584.285Z" fill="white"/>
<path d="M281.258 614.285L311.239 614.285L326.229 640.249L311.239 666.213L281.258 666.213L266.268 640.249L281.258 614.285Z" fill="white"/>
<path d="M230.258 644.285L260.239 644.285L275.229 670.249L260.239 696.213L230.258 696.213L215.268 670.249L230.258 644.285Z" fill="white"/>
<path d="M178.258 615.285L208.239 615.285L223.229 641.249L208.239 667.213L178.258 667.213L163.268 641.249L178.258 615.285Z" fill="white"/>
<path d="M126.258 586.285L156.239 586.285L171.229 612.249L156.239 638.213L126.258 638.213L111.268 612.249L126.258 586.285Z" fill="white"/>
<path d="M281.258 321.285L311.239 321.285L326.229 347.249L311.239 373.213L281.258 373.213L266.268 347.249L281.258 321.285Z" fill="white"/>
<path d="M230.258 350.285L260.239 350.285L275.229 376.249L260.239 402.213L230.258 402.213L215.268 376.249L230.258 350.285Z" fill="white"/>
<path d="M179.258 437.285L209.239 437.285L224.229 463.249L209.239 489.213L179.258 489.213L164.268 463.249L179.258 437.285Z" fill="white"/>
<path d="M26.2583 586.285L56.2391 586.285L71.2294 612.249L56.2391 638.213L26.2583 638.213L11.2679 612.249L26.2583 586.285Z" fill="white"/>
<path d="M26.2583 409.285L56.2391 409.285L71.2294 435.249L56.2391 461.213L26.2583 461.213L11.2679 435.249L26.2583 409.285Z" fill="white"/>
<path d="M77.2583 379.285L107.239 379.285L122.229 405.249L107.239 431.213L77.2583 431.213L62.2679 405.249L77.2583 379.285Z" fill="white"/>
<path d="M332.258 350.285L362.239 350.285L377.229 376.249L362.239 402.213L332.258 402.213L317.268 376.249L332.258 350.285Z" fill="white"/>
<path d="M332.258 642.285L362.239 642.285L377.229 668.249L362.239 694.213L332.258 694.213L317.268 668.249L332.258 642.285Z" fill="white"/>
<path d="M281.258 379.285L311.239 379.285L326.229 405.249L311.239 431.213L281.258 431.213L266.268 405.249L281.258 379.285Z" fill="white"/>
<path d="M230.258 408.285L260.239 408.285L275.229 434.249L260.239 460.213L230.258 460.213L215.268 434.249L230.258 408.285Z" fill="white"/>
<path d="M230.258 466.285L260.239 466.285L275.229 492.249L260.239 518.213L230.258 518.213L215.268 492.249L230.258 466.285Z" fill="white"/>
<path d="M128.258 408.285L158.239 408.285L173.229 434.249L158.239 460.213L128.258 460.213L113.268 434.249L128.258 408.285Z" fill="white"/>
<path d="M179.258 495.285L209.239 495.285L224.229 521.249L209.239 547.213L179.258 547.213L164.268 521.249L179.258 495.285Z" fill="white"/>
<path d="M280.258 495.285L310.239 495.285L325.229 521.249L310.239 547.213L280.258 547.213L265.268 521.249L280.258 495.285Z" fill="white"/>
<path d="M26.2583 644.285L56.2391 644.285L71.2294 670.249L56.2391 696.213L26.2583 696.213L11.2679 670.249L26.2583 644.285Z" fill="white"/>
<path d="M26.2583 467.285L56.2391 467.285L71.2294 493.249L56.2391 519.213L26.2583 519.213L11.2679 493.249L26.2583 467.285Z" fill="white"/>
<path d="M26.2583 705.285L56.2391 705.285L71.2294 731.249L56.2391 757.213L26.2583 757.213L11.2679 731.249L26.2583 705.285Z" fill="white"/>
<path d="M77.2583 88.2846L107.239 88.2846L122.229 114.249L107.239 140.213L77.2583 140.213L62.2679 114.249L77.2583 88.2846Z" fill="white"/>
<path d="M77.2583 147.285L107.239 147.285L122.229 173.249L107.239 199.213L77.2583 199.213L62.2679 173.249L77.2583 147.285Z" fill="white"/>
<path d="M128.258 179.285L158.239 179.285L173.229 205.249L158.239 231.213L128.258 231.213L113.268 205.249L128.258 179.285Z" fill="white"/>
<path d="M229.258 179.285L259.239 179.285L274.229 205.249L259.239 231.213L229.258 231.213L214.268 205.249L229.258 179.285Z" fill="white"/>
<path d="M178.258 148.285L208.239 148.285L223.229 174.249L208.239 200.213L178.258 200.213L163.268 174.249L178.258 148.285Z" fill="white"/>
<path d="M178.258 208.285L208.239 208.285L223.229 234.249L208.239 260.213L178.258 260.213L163.268 234.249L178.258 208.285Z" fill="white"/>
<path d="M128.258 239.285L158.239 239.285L173.229 265.249L158.239 291.213L128.258 291.213L113.268 265.249L128.258 239.285Z" fill="white"/>
<path d="M179.258 29.2846L209.239 29.2846L224.229 55.2487L209.239 81.2128L179.258 81.2128L164.268 55.2487L179.258 29.2846Z" fill="white"/>
<path d="M230.258 59.2846L260.239 59.2846L275.229 85.2487L260.239 111.213L230.258 111.213L215.268 85.2487L230.258 59.2846Z" fill="white"/>
<path d="M281.258 89.2846L311.239 89.2846L326.229 115.249L311.239 141.213L281.258 141.213L266.268 115.249L281.258 89.2846Z" fill="white"/>
<path d="M230.258 -0.715387L260.239 -0.715387L275.229 25.2487L260.239 51.2128L230.258 51.2128L215.268 25.2487L230.258 -0.715387Z" fill="white"/>
</g>
<rect x="88" y="-48" width="184" height="48" rx="24" fill="black"/>
</g>
<defs>
<linearGradient id="paint0_linear_681_1742" x1="180" y1="0" x2="180" y2="800" gradientUnits="userSpaceOnUse">
<stop stop-color="#FFD960"/>
<stop offset="1" stop-color="#FFC60B"/>
</linearGradient>
<clipPath id="clip0_681_1742">
<rect width="360" height="800" fill="white"/>
</clipPath>
</defs>
</svg>
