<svg width="270" height="224" viewBox="0 0 270 224" fill="none" xmlns="http://www.w3.org/2000/svg">
<path d="M48.9267 26.4842C48.0081 26.4842 47.1847 26.3108 46.4567 25.9642C45.7461 25.6002 45.1827 25.1148 44.7667 24.5082C44.3681 23.9015 44.1687 23.2168 44.1687 22.4542C44.1687 21.5182 44.4114 20.7815 44.8967 20.2442C45.3821 19.6895 46.1707 19.2908 47.2627 19.0482C48.3547 18.8055 49.8194 18.6842 51.6567 18.6842H52.9567V20.5562H51.6827C50.6081 20.5562 49.7501 20.6082 49.1087 20.7122C48.4674 20.8162 48.0081 20.9982 47.7307 21.2582C47.4707 21.5008 47.3407 21.8475 47.3407 22.2982C47.3407 22.8702 47.5401 23.3382 47.9387 23.7022C48.3374 24.0662 48.8921 24.2482 49.6027 24.2482C50.1747 24.2482 50.6774 24.1182 51.1107 23.8582C51.5614 23.5808 51.9167 23.2082 52.1767 22.7402C52.4367 22.2722 52.5667 21.7348 52.5667 21.1282V18.1382C52.5667 17.2715 52.3761 16.6475 51.9947 16.2662C51.6134 15.8848 50.9721 15.6942 50.0707 15.6942C49.5681 15.6942 49.0221 15.7548 48.4327 15.8762C47.8607 15.9975 47.2541 16.2055 46.6127 16.5002C46.2834 16.6562 45.9887 16.6995 45.7287 16.6302C45.4861 16.5608 45.2954 16.4222 45.1567 16.2142C45.0181 15.9888 44.9487 15.7462 44.9487 15.4862C44.9487 15.2262 45.0181 14.9748 45.1567 14.7322C45.2954 14.4722 45.5294 14.2815 45.8587 14.1602C46.6561 13.8308 47.4187 13.5968 48.1467 13.4582C48.8921 13.3195 49.5681 13.2502 50.1747 13.2502C51.4227 13.2502 52.4454 13.4408 53.2427 13.8222C54.0574 14.2035 54.6641 14.7842 55.0627 15.5642C55.4614 16.3268 55.6607 17.3148 55.6607 18.5282V24.7682C55.6607 25.3055 55.5307 25.7215 55.2707 26.0162C55.0107 26.2935 54.6381 26.4322 54.1527 26.4322C53.6674 26.4322 53.2861 26.2935 53.0087 26.0162C52.7487 25.7215 52.6187 25.3055 52.6187 24.7682V23.5202H52.8267C52.7054 24.1268 52.4627 24.6555 52.0987 25.1062C51.7521 25.5395 51.3101 25.8775 50.7727 26.1202C50.2354 26.3628 49.6201 26.4842 48.9267 26.4842ZM60.0515 26.4322C59.5315 26.4322 59.1328 26.2935 58.8555 26.0162C58.5782 25.7215 58.4395 25.3055 58.4395 24.7682V14.9402C58.4395 14.4028 58.5782 13.9955 58.8555 13.7182C59.1328 13.4408 59.5228 13.3022 60.0255 13.3022C60.5282 13.3022 60.9182 13.4408 61.1955 13.7182C61.4728 13.9955 61.6115 14.4028 61.6115 14.9402V16.7082L61.3255 16.0582C61.7068 15.1395 62.2962 14.4462 63.0935 13.9782C63.9082 13.4928 64.8268 13.2502 65.8495 13.2502C66.8722 13.2502 67.7128 13.4408 68.3715 13.8222C69.0302 14.2035 69.5242 14.7842 69.8535 15.5642C70.1828 16.3268 70.3475 17.2975 70.3475 18.4762V24.7682C70.3475 25.3055 70.2088 25.7215 69.9315 26.0162C69.6542 26.2935 69.2555 26.4322 68.7355 26.4322C68.2155 26.4322 67.8082 26.2935 67.5135 26.0162C67.2362 25.7215 67.0975 25.3055 67.0975 24.7682V18.6322C67.0975 17.6442 66.9068 16.9248 66.5255 16.4742C66.1615 16.0235 65.5895 15.7982 64.8095 15.7982C63.8562 15.7982 63.0935 16.1015 62.5215 16.7082C61.9668 17.2975 61.6895 18.0862 61.6895 19.0742V24.7682C61.6895 25.8775 61.1435 26.4322 60.0515 26.4322ZM78.9265 26.4842C77.6091 26.4842 76.4651 26.2155 75.4945 25.6782C74.5238 25.1408 73.7698 24.3782 73.2325 23.3902C72.6951 22.3848 72.4265 21.2062 72.4265 19.8542C72.4265 18.8315 72.5738 17.9215 72.8685 17.1242C73.1805 16.3095 73.6225 15.6162 74.1945 15.0442C74.7665 14.4548 75.4511 14.0128 76.2485 13.7182C77.0458 13.4062 77.9385 13.2502 78.9265 13.2502C80.2438 13.2502 81.3878 13.5188 82.3585 14.0562C83.3291 14.5935 84.0831 15.3562 84.6205 16.3442C85.1578 17.3322 85.4265 18.5022 85.4265 19.8542C85.4265 20.8768 85.2705 21.7955 84.9585 22.6102C84.6638 23.4248 84.2305 24.1268 83.6585 24.7162C83.0865 25.2882 82.4018 25.7302 81.6045 26.0422C80.8071 26.3368 79.9145 26.4842 78.9265 26.4842ZM78.9265 24.0142C79.5678 24.0142 80.1311 23.8582 80.6165 23.5462C81.1018 23.2342 81.4745 22.7748 81.7345 22.1682C82.0118 21.5442 82.1505 20.7728 82.1505 19.8542C82.1505 18.4675 81.8558 17.4362 81.2665 16.7602C80.6771 16.0668 79.8971 15.7202 78.9265 15.7202C78.2851 15.7202 77.7218 15.8762 77.2365 16.1882C76.7511 16.4828 76.3698 16.9422 76.0925 17.5662C75.8325 18.1728 75.7025 18.9355 75.7025 19.8542C75.7025 21.2235 75.9971 22.2635 76.5865 22.9742C77.1758 23.6675 77.9558 24.0142 78.9265 24.0142ZM93.3869 26.4842C92.0696 26.4842 90.9256 26.2155 89.9549 25.6782C88.9843 25.1408 88.2303 24.3782 87.6929 23.3902C87.1556 22.3848 86.8869 21.2062 86.8869 19.8542C86.8869 18.8315 87.0343 17.9215 87.3289 17.1242C87.6409 16.3095 88.0829 15.6162 88.6549 15.0442C89.2269 14.4548 89.9116 14.0128 90.7089 13.7182C91.5063 13.4062 92.3989 13.2502 93.3869 13.2502C94.7043 13.2502 95.8483 13.5188 96.8189 14.0562C97.7896 14.5935 98.5436 15.3562 99.0809 16.3442C99.6183 17.3322 99.8869 18.5022 99.8869 19.8542C99.8869 20.8768 99.7309 21.7955 99.4189 22.6102C99.1243 23.4248 98.6909 24.1268 98.1189 24.7162C97.5469 25.2882 96.8623 25.7302 96.0649 26.0422C95.2676 26.3368 94.3749 26.4842 93.3869 26.4842ZM93.3869 24.0142C94.0283 24.0142 94.5916 23.8582 95.0769 23.5462C95.5623 23.2342 95.9349 22.7748 96.1949 22.1682C96.4723 21.5442 96.6109 20.7728 96.6109 19.8542C96.6109 18.4675 96.3163 17.4362 95.7269 16.7602C95.1376 16.0668 94.3576 15.7202 93.3869 15.7202C92.7456 15.7202 92.1823 15.8762 91.6969 16.1882C91.2116 16.4828 90.8303 16.9422 90.5529 17.5662C90.2929 18.1728 90.1629 18.9355 90.1629 19.8542C90.1629 21.2235 90.4576 22.2635 91.0469 22.9742C91.6363 23.6675 92.4163 24.0142 93.3869 24.0142ZM103.661 31.1122C103.141 31.1122 102.743 30.9735 102.465 30.6962C102.188 30.4188 102.049 30.0115 102.049 29.4742V14.9402C102.049 14.4028 102.188 13.9955 102.465 13.7182C102.743 13.4408 103.133 13.3022 103.635 13.3022C104.155 13.3022 104.554 13.4408 104.831 13.7182C105.109 13.9955 105.247 14.4028 105.247 14.9402V16.9682L104.961 16.1882C105.221 15.3042 105.75 14.5935 106.547 14.0562C107.362 13.5188 108.307 13.2502 109.381 13.2502C110.491 13.2502 111.461 13.5188 112.293 14.0562C113.143 14.5935 113.801 15.3562 114.269 16.3442C114.737 17.3148 114.971 18.4848 114.971 19.8542C114.971 21.2062 114.737 22.3848 114.269 23.3902C113.801 24.3782 113.151 25.1408 112.319 25.6782C111.487 26.2155 110.508 26.4842 109.381 26.4842C108.324 26.4842 107.397 26.2242 106.599 25.7042C105.802 25.1668 105.265 24.4735 104.987 23.6242H105.299V29.4742C105.299 30.0115 105.152 30.4188 104.857 30.6962C104.58 30.9735 104.181 31.1122 103.661 31.1122ZM108.471 24.0142C109.113 24.0142 109.676 23.8582 110.161 23.5462C110.647 23.2342 111.019 22.7748 111.279 22.1682C111.557 21.5442 111.695 20.7728 111.695 19.8542C111.695 18.4675 111.401 17.4362 110.811 16.7602C110.222 16.0668 109.442 15.7202 108.471 15.7202C107.83 15.7202 107.267 15.8762 106.781 16.1882C106.296 16.4828 105.915 16.9422 105.637 17.5662C105.377 18.1728 105.247 18.9355 105.247 19.8542C105.247 21.2235 105.542 22.2635 106.131 22.9742C106.721 23.6675 107.501 24.0142 108.471 24.0142Z" fill="#110E09"/>
<path d="M160.958 31.1641C160.022 31.1641 159.112 31.0774 158.228 30.9041C157.361 30.7308 156.573 30.4621 155.862 30.0981C155.533 29.9248 155.307 29.7168 155.186 29.4741C155.082 29.2314 155.047 28.9801 155.082 28.7201C155.134 28.4774 155.238 28.2608 155.394 28.0701C155.567 27.8794 155.775 27.7494 156.018 27.6801C156.261 27.6108 156.512 27.6454 156.772 27.7841C157.535 28.1654 158.254 28.4081 158.93 28.5121C159.623 28.6334 160.213 28.6941 160.698 28.6941C161.859 28.6941 162.726 28.4081 163.298 27.8361C163.887 27.2814 164.182 26.4494 164.182 25.3401V23.0001H164.416C164.156 23.8841 163.61 24.5948 162.778 25.1321C161.963 25.6521 161.036 25.9121 159.996 25.9121C158.852 25.9121 157.855 25.6521 157.006 25.1321C156.157 24.5948 155.498 23.8494 155.03 22.8961C154.562 21.9428 154.328 20.8334 154.328 19.5681C154.328 18.6148 154.458 17.7568 154.718 16.9941C154.995 16.2141 155.377 15.5468 155.862 14.9921C156.365 14.4374 156.963 14.0128 157.656 13.7181C158.367 13.4061 159.147 13.2501 159.996 13.2501C161.071 13.2501 162.007 13.5188 162.804 14.0561C163.619 14.5761 164.147 15.2694 164.39 16.1361L164.13 16.7861V14.9401C164.13 14.4028 164.269 13.9954 164.546 13.7181C164.841 13.4408 165.239 13.3021 165.742 13.3021C166.262 13.3021 166.661 13.4408 166.938 13.7181C167.215 13.9954 167.354 14.4028 167.354 14.9401V24.9501C167.354 27.0128 166.808 28.5641 165.716 29.6041C164.624 30.6441 163.038 31.1641 160.958 31.1641ZM160.88 23.4421C161.556 23.4421 162.137 23.2861 162.622 22.9741C163.107 22.6621 163.48 22.2201 163.74 21.6481C164.017 21.0588 164.156 20.3654 164.156 19.5681C164.156 18.3721 163.861 17.4361 163.272 16.7601C162.683 16.0668 161.885 15.7201 160.88 15.7201C160.204 15.7201 159.623 15.8761 159.138 16.1881C158.653 16.5001 158.271 16.9421 157.994 17.5141C157.734 18.0861 157.604 18.7708 157.604 19.5681C157.604 20.7641 157.899 21.7088 158.488 22.4021C159.077 23.0954 159.875 23.4421 160.88 23.4421ZM175.999 26.4841C174.682 26.4841 173.538 26.2154 172.567 25.6781C171.597 25.1408 170.843 24.3781 170.305 23.3901C169.768 22.3848 169.499 21.2061 169.499 19.8541C169.499 18.8314 169.647 17.9214 169.941 17.1241C170.253 16.3094 170.695 15.6161 171.267 15.0441C171.839 14.4548 172.524 14.0128 173.321 13.7181C174.119 13.4061 175.011 13.2501 175.999 13.2501C177.317 13.2501 178.461 13.5188 179.431 14.0561C180.402 14.5934 181.156 15.3561 181.693 16.3441C182.231 17.3321 182.499 18.5021 182.499 19.8541C182.499 20.8768 182.343 21.7954 182.031 22.6101C181.737 23.4248 181.303 24.1268 180.731 24.7161C180.159 25.2881 179.475 25.7301 178.677 26.0421C177.88 26.3368 176.987 26.4841 175.999 26.4841ZM175.999 24.0141C176.641 24.0141 177.204 23.8581 177.689 23.5461C178.175 23.2341 178.547 22.7748 178.807 22.1681C179.085 21.5441 179.223 20.7728 179.223 19.8541C179.223 18.4674 178.929 17.4361 178.339 16.7601C177.75 16.0668 176.97 15.7201 175.999 15.7201C175.358 15.7201 174.795 15.8761 174.309 16.1881C173.824 16.4828 173.443 16.9421 173.165 17.5661C172.905 18.1728 172.775 18.9354 172.775 19.8541C172.775 21.2234 173.07 22.2634 173.659 22.9741C174.249 23.6674 175.029 24.0141 175.999 24.0141ZM186.274 31.1121C185.754 31.1121 185.355 30.9734 185.078 30.6961C184.801 30.4188 184.662 30.0114 184.662 29.4741V14.9401C184.662 14.4028 184.801 13.9954 185.078 13.7181C185.355 13.4408 185.745 13.3021 186.248 13.3021C186.768 13.3021 187.167 13.4408 187.444 13.7181C187.721 13.9954 187.86 14.4028 187.86 14.9401V16.9681L187.574 16.1881C187.834 15.3041 188.363 14.5934 189.16 14.0561C189.975 13.5188 190.919 13.2501 191.994 13.2501C193.103 13.2501 194.074 13.5188 194.906 14.0561C195.755 14.5934 196.414 15.3561 196.882 16.3441C197.35 17.3148 197.584 18.4848 197.584 19.8541C197.584 21.2061 197.35 22.3848 196.882 23.3901C196.414 24.3781 195.764 25.1408 194.932 25.6781C194.1 26.2154 193.121 26.4841 191.994 26.4841C190.937 26.4841 190.009 26.2241 189.212 25.7041C188.415 25.1668 187.877 24.4734 187.6 23.6241H187.912V29.4741C187.912 30.0114 187.765 30.4188 187.47 30.6961C187.193 30.9734 186.794 31.1121 186.274 31.1121ZM191.084 24.0141C191.725 24.0141 192.289 23.8581 192.774 23.5461C193.259 23.2341 193.632 22.7748 193.892 22.1681C194.169 21.5441 194.308 20.7728 194.308 19.8541C194.308 18.4674 194.013 17.4361 193.424 16.7601C192.835 16.0668 192.055 15.7201 191.084 15.7201C190.443 15.7201 189.879 15.8761 189.394 16.1881C188.909 16.4828 188.527 16.9421 188.25 17.5661C187.99 18.1728 187.86 18.9354 187.86 19.8541C187.86 21.2234 188.155 22.2634 188.744 22.9741C189.333 23.6674 190.113 24.0141 191.084 24.0141ZM201.344 26.4061C200.824 26.4061 200.425 26.2501 200.148 25.9381C199.87 25.6261 199.732 25.1928 199.732 24.6381V15.0961C199.732 14.5241 199.87 14.0908 200.148 13.7961C200.425 13.4841 200.824 13.3281 201.344 13.3281C201.864 13.3281 202.262 13.4841 202.54 13.7961C202.834 14.0908 202.982 14.5241 202.982 15.0961V24.6381C202.982 25.1928 202.843 25.6261 202.566 25.9381C202.288 26.2501 201.881 26.4061 201.344 26.4061ZM201.344 10.9101C200.737 10.9101 200.26 10.7628 199.914 10.4681C199.584 10.1561 199.42 9.73142 199.42 9.19409C199.42 8.63942 199.584 8.21476 199.914 7.92009C200.26 7.62542 200.737 7.47809 201.344 7.47809C201.968 7.47809 202.444 7.62542 202.774 7.92009C203.103 8.21476 203.268 8.63942 203.268 9.19409C203.268 9.73142 203.103 10.1561 202.774 10.4681C202.444 10.7628 201.968 10.9101 201.344 10.9101ZM207.451 26.4321C206.931 26.4321 206.532 26.2934 206.255 26.0161C205.977 25.7214 205.839 25.3054 205.839 24.7681V9.32409C205.839 8.78676 205.977 8.37942 206.255 8.10209C206.532 7.82476 206.931 7.68609 207.451 7.68609C207.971 7.68609 208.369 7.82476 208.647 8.10209C208.941 8.37942 209.089 8.78676 209.089 9.32409V18.9181H209.141L213.431 14.3941C213.777 14.0474 214.081 13.7788 214.341 13.5881C214.601 13.3974 214.956 13.3021 215.407 13.3021C215.857 13.3021 216.195 13.4234 216.421 13.6661C216.663 13.8914 216.785 14.1688 216.785 14.4981C216.785 14.8274 216.629 15.1568 216.317 15.4861L211.793 20.2701V18.9181L216.759 24.2741C217.071 24.6034 217.209 24.9414 217.175 25.2881C217.157 25.6174 217.019 25.8948 216.759 26.1201C216.499 26.3281 216.169 26.4321 215.771 26.4321C215.285 26.4321 214.895 26.3368 214.601 26.1461C214.323 25.9554 214.011 25.6694 213.665 25.2881L209.141 20.5561H209.089V24.7681C209.089 25.8774 208.543 26.4321 207.451 26.4321ZM223.317 26.4841C222.399 26.4841 221.575 26.3108 220.847 25.9641C220.137 25.6001 219.573 25.1148 219.157 24.5081C218.759 23.9014 218.559 23.2168 218.559 22.4541C218.559 21.5181 218.802 20.7814 219.287 20.2441C219.773 19.6894 220.561 19.2908 221.653 19.0481C222.745 18.8054 224.21 18.6841 226.047 18.6841H227.347V20.5561H226.073C224.999 20.5561 224.141 20.6081 223.499 20.7121C222.858 20.8161 222.399 20.9981 222.121 21.2581C221.861 21.5008 221.731 21.8474 221.731 22.2981C221.731 22.8701 221.931 23.3381 222.329 23.7021C222.728 24.0661 223.283 24.2481 223.993 24.2481C224.565 24.2481 225.068 24.1181 225.501 23.8581C225.952 23.5808 226.307 23.2081 226.567 22.7401C226.827 22.2721 226.957 21.7348 226.957 21.1281V18.1381C226.957 17.2714 226.767 16.6474 226.385 16.2661C226.004 15.8848 225.363 15.6941 224.461 15.6941C223.959 15.6941 223.413 15.7548 222.823 15.8761C222.251 15.9974 221.645 16.2054 221.003 16.5001C220.674 16.6561 220.379 16.6994 220.119 16.6301C219.877 16.5608 219.686 16.4221 219.547 16.2141C219.409 15.9888 219.339 15.7461 219.339 15.4861C219.339 15.2261 219.409 14.9748 219.547 14.7321C219.686 14.4721 219.92 14.2814 220.249 14.1601C221.047 13.8308 221.809 13.5968 222.537 13.4581C223.283 13.3194 223.959 13.2501 224.565 13.2501C225.813 13.2501 226.836 13.4408 227.633 13.8221C228.448 14.2034 229.055 14.7841 229.453 15.5641C229.852 16.3268 230.051 17.3148 230.051 18.5281V24.7681C230.051 25.3054 229.921 25.7214 229.661 26.0161C229.401 26.2934 229.029 26.4321 228.543 26.4321C228.058 26.4321 227.677 26.2934 227.399 26.0161C227.139 25.7214 227.009 25.3054 227.009 24.7681V23.5201H227.217C227.096 24.1268 226.853 24.6554 226.489 25.1061C226.143 25.5394 225.701 25.8774 225.163 26.1201C224.626 26.3628 224.011 26.4841 223.317 26.4841Z" fill="#110E09"/>
<path d="M136.023 28.5613C135.168 29.3687 133.832 29.3687 132.977 28.5613C127.57 23.4714 124 20.1035 124 15.9946C124 12.6267 126.541 10 129.775 10C131.377 10 132.923 10.6788 134.051 11.7793C134.297 12.0198 134.703 12.0198 134.949 11.7793C136.077 10.6788 137.623 10 139.225 10C142.459 10 145 12.6267 145 15.9946C145 20.1035 141.43 23.4714 136.023 28.5613Z" fill="#110E09"/>
<g filter="url(#filter0_d_631_752)">
<path d="M39.7267 62.04L31.7747 64.28C31.588 63.048 30.972 61.9093 29.9267 60.864C28.8814 59.8187 27.2947 59.296 25.1667 59.296C23.5614 59.296 22.2547 59.7253 21.2467 60.584C20.2387 61.4053 19.7347 62.3947 19.7347 63.552C19.7347 65.6053 21.0414 66.8747 23.6547 67.36L28.9747 68.368C32.6334 69.04 35.4521 70.4773 37.4307 72.68C39.4467 74.8453 40.4547 77.384 40.4547 80.296C40.4547 83.6187 39.1294 86.5493 36.4787 89.088C33.8281 91.5893 30.2627 92.84 25.7827 92.84C20.78 92.84 16.8974 91.552 14.1347 88.976C11.4094 86.3627 9.87872 83.4133 9.54272 80.128L17.6627 78.168C17.8494 80.1467 18.6147 81.7893 19.9587 83.096C21.34 84.3653 23.3187 85 25.8947 85C27.6121 85 28.9747 84.6267 29.9827 83.88C30.9907 83.096 31.4947 82.088 31.4947 80.856C31.4947 79.848 31.1214 79.008 30.3747 78.336C29.6281 77.6267 28.5827 77.1413 27.2387 76.88L21.8067 75.872C18.4467 75.2373 15.796 73.8747 13.8547 71.784C11.9507 69.6933 10.9987 67.1733 10.9987 64.224C10.9987 60.5653 12.3987 57.5227 15.1987 55.096C17.9987 52.6693 21.34 51.456 25.2227 51.456C27.5747 51.456 29.6654 51.792 31.4947 52.464C33.3614 53.0987 34.8361 53.9573 35.9187 55.04C37.0014 56.1227 37.8414 57.2427 38.4387 58.4C39.0734 59.5573 39.5027 60.7707 39.7267 62.04ZM69.2847 92L66.4287 83.936H51.0847L48.2287 92H38.9327L53.8847 52.296H64.1327L78.9167 92H69.2847ZM58.8687 62.152L53.9967 75.872H63.6287L58.8687 62.152ZM92.9683 80.24L102.432 52.296H111.84L97.3363 92H88.2083L73.6483 52.296H83.3923L92.9683 80.24ZM139.121 92H113.921V52.296H139.065V60.64H122.769V68.2H137.553V75.984H122.769V83.6H139.121V92ZM165.054 63.216C162.777 65.2693 161.638 68.2373 161.638 72.12C161.638 76.0027 162.777 78.9707 165.054 81.024C167.369 83.0773 170.057 84.104 173.118 84.104C176.18 84.104 178.849 83.0773 181.126 81.024C183.404 78.9707 184.542 76.0027 184.542 72.12C184.542 68.2373 183.404 65.2693 181.126 63.216C178.849 61.1253 176.18 60.08 173.118 60.08C170.057 60.08 167.369 61.1253 165.054 63.216ZM152.454 72.176C152.454 66.016 154.452 61.032 158.446 57.224C162.478 53.3787 167.369 51.456 173.118 51.456C178.868 51.456 183.74 53.3787 187.734 57.224C191.729 61.0693 193.726 66.0533 193.726 72.176C193.726 78.2987 191.729 83.2827 187.734 87.128C183.74 90.936 178.868 92.84 173.118 92.84C167.369 92.84 162.478 90.936 158.446 87.128C154.452 83.2827 152.454 78.2987 152.454 72.176ZM223.888 88.92C220.938 91.5707 217.186 92.896 212.632 92.896C208.077 92.896 204.306 91.5707 201.32 88.92C198.37 86.232 196.896 82.48 196.896 77.664V52.296H205.744V76.936C205.744 79.288 206.341 81.08 207.536 82.312C208.768 83.544 210.466 84.16 212.632 84.16C214.797 84.16 216.477 83.544 217.672 82.312C218.904 81.08 219.52 79.288 219.52 76.936V52.296H228.368V77.664C228.368 82.48 226.874 86.232 223.888 88.92ZM252.957 92L245.845 77.216H242.709V92H233.861V52.296H249.597C253.443 52.296 256.541 53.472 258.893 55.824C261.283 58.176 262.477 61.144 262.477 64.728C262.477 67.416 261.787 69.7493 260.405 71.728C259.024 73.6693 257.101 75.0693 254.637 75.928L262.701 92H252.957ZM242.709 69.6H247.917C249.709 69.6 251.091 69.1707 252.061 68.312C253.032 67.416 253.517 66.24 253.517 64.784C253.517 63.2907 253.032 62.1147 252.061 61.256C251.091 60.3973 249.709 59.968 247.917 59.968H242.709V69.6ZM80.3639 139.656H85.5159C88.7639 139.656 91.4146 138.685 93.4679 136.744C95.5586 134.803 96.6039 131.947 96.6039 128.176C96.6039 124.368 95.5586 121.493 93.4679 119.552C91.4146 117.611 88.7639 116.64 85.5159 116.64H80.3639V139.656ZM85.8519 148H71.5159V108.296H85.9079C91.9186 108.296 96.7346 110.088 100.356 113.672C104.015 117.256 105.844 122.091 105.844 128.176C105.844 134.261 104.015 139.096 100.356 142.68C96.7346 146.227 91.8999 148 85.8519 148ZM133.761 148L130.905 139.936H115.561L112.705 148H103.409L118.361 108.296H128.609L143.393 148H133.761ZM123.345 118.152L118.473 131.872H128.105L123.345 118.152ZM171.894 116.752H159.63V148H150.782V116.752H138.574V108.296H171.894V116.752ZM199.66 148H174.46V108.296H199.604V116.64H183.308V124.2H198.092V131.984H183.308V139.6H199.66V148Z" fill="white"/>
<path d="M39.7267 62.04L39.9979 63.0025L40.8687 62.7572L40.7115 61.8662L39.7267 62.04ZM31.7747 64.28L30.786 64.4298L30.9557 65.5496L32.0459 65.2425L31.7747 64.28ZM29.9267 60.864L30.6338 60.1569L29.9267 60.864ZM21.2467 60.584L21.8784 61.3592L21.8869 61.3523L21.8952 61.3452L21.2467 60.584ZM23.6547 67.36L23.8409 66.3775L23.8373 66.3768L23.6547 67.36ZM28.9747 68.368L28.7886 69.3505L28.7941 69.3515L28.9747 68.368ZM37.4307 72.68L36.6868 73.3483L36.6928 73.3549L36.6988 73.3614L37.4307 72.68ZM36.4787 89.088L37.1651 89.8153L37.1704 89.8102L36.4787 89.088ZM14.1347 88.976L13.4425 89.6979L13.4528 89.7074L14.1347 88.976ZM9.54272 80.128L9.30807 79.1559L8.45904 79.3609L8.5479 80.2297L9.54272 80.128ZM17.6627 78.168L18.6583 78.0741L18.5499 76.9251L17.4281 77.1959L17.6627 78.168ZM19.9587 83.096L19.2616 83.813L19.2717 83.8228L19.2821 83.8323L19.9587 83.096ZM29.9827 83.88L30.5779 84.6836L30.5874 84.6766L30.5967 84.6693L29.9827 83.88ZM30.3747 78.336L29.686 79.061L29.6957 79.0703L29.7058 79.0793L30.3747 78.336ZM27.2387 76.88L27.4296 75.8983L27.4212 75.8968L27.2387 76.88ZM21.8067 75.872L21.6211 76.8546L21.6243 76.8552L21.8067 75.872ZM13.8547 71.784L13.1153 72.4574L13.1219 72.4644L13.8547 71.784ZM15.1987 55.096L14.5438 54.3403L15.1987 55.096ZM31.4947 52.464L31.1499 53.4027L31.1613 53.4069L31.1728 53.4108L31.4947 52.464ZM35.9187 55.04L35.2116 55.7471L35.9187 55.04ZM38.4387 58.4L37.5501 58.8586L37.5559 58.8698L37.5619 58.8808L38.4387 58.4ZM39.4556 61.0775L31.5036 63.3175L32.0459 65.2425L39.9979 63.0025L39.4556 61.0775ZM32.7634 64.1302C32.5392 62.6499 31.8011 61.3242 30.6338 60.1569L29.2196 61.5711C30.143 62.4945 30.637 63.4461 30.786 64.4298L32.7634 64.1302ZM30.6338 60.1569C29.3318 58.8549 27.4429 58.296 25.1667 58.296V60.296C27.1466 60.296 28.4309 60.7824 29.2196 61.5711L30.6338 60.1569ZM25.1667 58.296C23.3763 58.296 21.8235 58.779 20.5982 59.8228L21.8952 61.3452C22.6859 60.6717 23.7465 60.296 25.1667 60.296V58.296ZM20.615 59.8088C19.4065 60.7935 18.7347 62.0544 18.7347 63.552H20.7347C20.7347 62.7349 21.0709 62.0172 21.8784 61.3592L20.615 59.8088ZM18.7347 63.552C18.7347 64.8112 19.1453 65.9136 20.0179 66.7613C20.8638 67.5829 22.056 68.0802 23.4721 68.3432L23.8373 66.3768C22.6401 66.1545 21.8723 65.7744 21.4115 65.3267C20.9775 64.9051 20.7347 64.3461 20.7347 63.552H18.7347ZM23.4686 68.3425L28.7886 69.3505L29.1609 67.3855L23.8409 66.3775L23.4686 68.3425ZM28.7941 69.3515C32.292 69.994 34.8902 71.3483 36.6868 73.3483L38.1746 72.0117C36.0139 69.6063 32.9748 68.086 29.1554 67.3845L28.7941 69.3515ZM36.6988 73.3614C38.5456 75.345 39.4547 77.6413 39.4547 80.296H41.4547C41.4547 77.1267 40.3479 74.3457 38.1626 71.9986L36.6988 73.3614ZM39.4547 80.296C39.4547 83.316 38.2635 85.994 35.787 88.3658L37.1704 89.8102C39.9952 87.1047 41.4547 83.9214 41.4547 80.296H39.4547ZM35.7924 88.3607C33.3677 90.6488 30.0691 91.84 25.7827 91.84V93.84C30.4563 93.84 34.2884 92.5299 37.165 89.8153L35.7924 88.3607ZM25.7827 91.84C20.949 91.84 17.3407 90.5981 14.8167 88.2446L13.4528 89.7074C16.4541 92.5059 20.6111 93.84 25.7827 93.84V91.84ZM14.8268 88.2542C12.2467 85.7801 10.846 83.042 10.5375 80.0263L8.5479 80.2297C8.91148 83.7847 10.572 86.9452 13.4426 89.6978L14.8268 88.2542ZM9.77736 81.1001L17.8974 79.1401L17.4281 77.1959L9.30807 79.1559L9.77736 81.1001ZM16.6671 78.2619C16.8747 80.4617 17.7365 82.3302 19.2616 83.813L20.6558 82.379C19.493 81.2485 18.8241 79.8316 18.6583 78.0741L16.6671 78.2619ZM19.2821 83.8323C20.9073 85.3258 23.1625 86 25.8947 86V84C23.4749 84 21.7728 83.4049 20.6353 82.3597L19.2821 83.8323ZM25.8947 86C27.7487 86 29.3443 85.5974 30.5779 84.6836L29.3875 83.0764C28.6051 83.656 27.4754 84 25.8947 84V86ZM30.5967 84.6693C31.8379 83.704 32.4947 82.4095 32.4947 80.856H30.4947C30.4947 81.7665 30.1436 82.488 29.3688 83.0906L30.5967 84.6693ZM32.4947 80.856C32.4947 79.5656 32.0019 78.4551 31.0437 77.5927L29.7058 79.0793C30.2409 79.5609 30.4947 80.1304 30.4947 80.856H32.4947ZM31.0635 77.611C30.1401 76.7338 28.9004 76.1844 27.4296 75.8984L27.0478 77.8616C28.265 78.0983 29.116 78.5195 29.686 79.061L31.0635 77.611ZM27.4212 75.8968L21.9892 74.8888L21.6243 76.8552L27.0563 77.8632L27.4212 75.8968ZM21.9923 74.8894C18.7995 74.2863 16.3563 73.0084 14.5875 71.1035L13.1219 72.4644C15.2358 74.7409 18.0939 76.1884 21.6211 76.8546L21.9923 74.8894ZM14.5941 71.1107C12.8655 69.2127 11.9987 66.936 11.9987 64.224H9.99872C9.99872 67.4106 11.0359 70.174 13.1154 72.4573L14.5941 71.1107ZM11.9987 64.224C11.9987 60.8596 13.2696 58.0912 15.8536 55.8517L14.5438 54.3403C11.5278 56.9541 9.99872 60.2711 9.99872 64.224H11.9987ZM15.8536 55.8517C18.4626 53.5906 21.5681 52.456 25.2227 52.456V50.456C21.112 50.456 17.5349 51.748 14.5438 54.3403L15.8536 55.8517ZM25.2227 52.456C27.4807 52.456 29.4512 52.7787 31.1499 53.4027L31.8395 51.5253C29.8796 50.8053 27.6687 50.456 25.2227 50.456V52.456ZM31.1728 53.4108C32.9347 54.0098 34.2638 54.7993 35.2116 55.7471L36.6258 54.3329C35.4083 53.1153 33.788 52.1875 31.8166 51.5172L31.1728 53.4108ZM35.2116 55.7471C36.2338 56.7693 37.0076 57.8075 37.5501 58.8586L39.3273 57.9414C38.6752 56.6779 37.769 55.476 36.6258 54.3329L35.2116 55.7471ZM37.5619 58.8808C38.1453 59.9447 38.5374 61.0546 38.7419 62.2138L40.7115 61.8662C40.4681 60.4867 40.0014 59.1699 39.3155 57.9192L37.5619 58.8808ZM69.2847 92L68.342 92.3338L68.578 93H69.2847V92ZM66.4287 83.936L67.3713 83.6022L67.1354 82.936H66.4287V83.936ZM51.0847 83.936V82.936H50.378L50.142 83.6022L51.0847 83.936ZM48.2287 92V93H48.9354L49.1713 92.3338L48.2287 92ZM38.9327 92L37.9968 91.6476L37.4875 93H38.9327V92ZM53.8847 52.296V51.296H53.1927L52.9488 51.9436L53.8847 52.296ZM64.1327 52.296L65.0698 51.947L64.8274 51.296H64.1327V52.296ZM78.9167 92V93H80.3561L79.8538 91.6511L78.9167 92ZM58.8687 62.152L59.8134 61.8242L58.8796 59.1327L57.9263 61.8174L58.8687 62.152ZM53.9967 75.872L53.0543 75.5374L52.5804 76.872H53.9967V75.872ZM63.6287 75.872V76.872H65.0341L64.5734 75.5442L63.6287 75.872ZM70.2273 91.6662L67.3713 83.6022L65.486 84.2698L68.342 92.3338L70.2273 91.6662ZM66.4287 82.936H51.0847V84.936H66.4287V82.936ZM50.142 83.6022L47.286 91.6662L49.1713 92.3338L52.0273 84.2698L50.142 83.6022ZM48.2287 91H38.9327V93H48.2287V91ZM39.8685 92.3524L54.8205 52.6484L52.9488 51.9436L37.9968 91.6476L39.8685 92.3524ZM53.8847 53.296H64.1327V51.296H53.8847V53.296ZM63.1955 52.6449L77.9795 92.3489L79.8538 91.6511L65.0698 51.947L63.1955 52.6449ZM78.9167 91H69.2847V93H78.9167V91ZM57.9263 61.8174L53.0543 75.5374L54.939 76.2066L59.811 62.4866L57.9263 61.8174ZM53.9967 76.872H63.6287V74.872H53.9967V76.872ZM64.5734 75.5442L59.8134 61.8242L57.9239 62.4798L62.6839 76.1998L64.5734 75.5442ZM92.9683 80.24L92.0223 80.5642L92.9738 83.341L93.9154 80.5608L92.9683 80.24ZM102.432 52.296V51.296H101.715L101.485 51.9752L102.432 52.296ZM111.84 52.296L112.78 52.6391L113.27 51.296H111.84V52.296ZM97.3363 92V93H98.0356L98.2756 92.3431L97.3363 92ZM88.2083 92L87.2694 92.3443L87.5099 93H88.2083V92ZM73.6483 52.296V51.296H72.2164L72.7094 52.6403L73.6483 52.296ZM83.3923 52.296L84.3383 51.9718L84.1067 51.296H83.3923V52.296ZM93.9154 80.5608L103.379 52.6168L101.485 51.9752L92.0211 79.9192L93.9154 80.5608ZM102.432 53.296H111.84V51.296H102.432V53.296ZM110.901 51.9529L96.397 91.6569L98.2756 92.3431L112.78 52.6391L110.901 51.9529ZM97.3363 91H88.2083V93H97.3363V91ZM89.1471 91.6557L74.5871 51.9517L72.7094 52.6403L87.2694 92.3443L89.1471 91.6557ZM73.6483 53.296H83.3923V51.296H73.6483V53.296ZM82.4463 52.6202L92.0223 80.5642L93.9143 79.9158L84.3383 51.9718L82.4463 52.6202ZM139.121 92V93H140.121V92H139.121ZM113.921 92H112.921V93H113.921V92ZM113.921 52.296V51.296H112.921V52.296H113.921ZM139.065 52.296H140.065V51.296H139.065V52.296ZM139.065 60.64V61.64H140.065V60.64H139.065ZM122.769 60.64V59.64H121.769V60.64H122.769ZM122.769 68.2H121.769V69.2H122.769V68.2ZM137.553 68.2H138.553V67.2H137.553V68.2ZM137.553 75.984V76.984H138.553V75.984H137.553ZM122.769 75.984V74.984H121.769V75.984H122.769ZM122.769 83.6H121.769V84.6H122.769V83.6ZM139.121 83.6H140.121V82.6H139.121V83.6ZM139.121 91H113.921V93H139.121V91ZM114.921 92V52.296H112.921V92H114.921ZM113.921 53.296H139.065V51.296H113.921V53.296ZM138.065 52.296V60.64H140.065V52.296H138.065ZM139.065 59.64H122.769V61.64H139.065V59.64ZM121.769 60.64V68.2H123.769V60.64H121.769ZM122.769 69.2H137.553V67.2H122.769V69.2ZM136.553 68.2V75.984H138.553V68.2H136.553ZM137.553 74.984H122.769V76.984H137.553V74.984ZM121.769 75.984V83.6H123.769V75.984H121.769ZM122.769 84.6H139.121V82.6H122.769V84.6ZM138.121 83.6V92H140.121V83.6H138.121ZM165.054 63.216L165.724 63.9587L165.725 63.9581L165.054 63.216ZM165.054 81.024L164.385 81.7667L164.391 81.7721L165.054 81.024ZM181.126 81.024L181.796 81.7667L181.126 81.024ZM181.126 63.216L180.45 63.9527L180.457 63.9587L181.126 63.216ZM158.446 57.224L159.136 57.9478L159.136 57.9477L158.446 57.224ZM187.734 57.224L188.428 56.5036L187.734 57.224ZM187.734 87.128L188.424 87.8518L188.428 87.8484L187.734 87.128ZM158.446 87.128L157.753 87.8485L157.76 87.855L158.446 87.128ZM164.385 62.4733C161.844 64.7643 160.638 68.0348 160.638 72.12H162.638C162.638 68.4399 163.71 65.7744 165.724 63.9587L164.385 62.4733ZM160.638 72.12C160.638 76.2052 161.844 79.4757 164.385 81.7667L165.724 80.2813C163.71 78.4656 162.638 75.8001 162.638 72.12H160.638ZM164.391 81.7721C166.886 83.9858 169.809 85.104 173.118 85.104V83.104C170.304 83.104 167.852 82.1689 165.718 80.2759L164.391 81.7721ZM173.118 85.104C176.427 85.104 179.335 83.9854 181.796 81.7667L180.457 80.2813C178.363 82.1693 175.932 83.104 173.118 83.104V85.104ZM181.796 81.7667C184.337 79.4757 185.542 76.2052 185.542 72.12H183.542C183.542 75.8001 182.47 78.4656 180.457 80.2813L181.796 81.7667ZM185.542 72.12C185.542 68.0348 184.337 64.7643 181.796 62.4733L180.457 63.9587C182.47 65.7744 183.542 68.4399 183.542 72.12H185.542ZM181.803 62.4793C179.343 60.2212 176.433 59.08 173.118 59.08V61.08C175.926 61.08 178.355 62.0295 180.45 63.9527L181.803 62.4793ZM173.118 59.08C169.804 59.08 166.879 60.2207 164.384 62.4739L165.725 63.9581C167.859 62.03 170.31 61.08 173.118 61.08V59.08ZM153.454 72.176C153.454 66.2545 155.364 61.5442 159.136 57.9478L157.756 56.5002C153.54 60.5198 151.454 65.7775 151.454 72.176H153.454ZM159.136 57.9477C162.976 54.2859 167.617 52.456 173.118 52.456V50.456C167.121 50.456 161.981 52.4714 157.756 56.5003L159.136 57.9477ZM173.118 52.456C178.62 52.456 183.24 54.2857 187.041 57.9444L188.428 56.5036C184.239 52.4716 179.116 50.456 173.118 50.456V52.456ZM187.041 57.9444C190.818 61.5806 192.726 66.2939 192.726 72.176H194.726C194.726 65.8128 192.64 60.558 188.428 56.5036L187.041 57.9444ZM192.726 72.176C192.726 78.0581 190.818 82.7714 187.041 86.4076L188.428 87.8484C192.64 83.794 194.726 78.5392 194.726 72.176H192.726ZM187.044 86.4042C183.244 90.0269 178.623 91.84 173.118 91.84V93.84C179.113 93.84 184.235 91.8451 188.424 87.8518L187.044 86.4042ZM173.118 91.84C167.614 91.84 162.972 90.0267 159.133 86.401L157.76 87.855C161.985 91.8453 167.124 93.84 173.118 93.84V91.84ZM159.14 86.4076C155.362 82.7714 153.454 78.0581 153.454 72.176H151.454C151.454 78.5392 153.541 83.794 157.753 87.8484L159.14 86.4076ZM223.888 88.92L224.556 89.6638L224.556 89.6633L223.888 88.92ZM201.32 88.92L200.646 89.6592L200.656 89.6679L201.32 88.92ZM196.896 52.296V51.296H195.896V52.296H196.896ZM205.744 52.296H206.744V51.296H205.744V52.296ZM207.536 82.312L206.818 83.0081L206.823 83.0137L206.828 83.0191L207.536 82.312ZM217.672 82.312L216.964 81.6049L216.959 81.6103L216.954 81.6159L217.672 82.312ZM219.52 52.296V51.296H218.52V52.296H219.52ZM228.368 52.296H229.368V51.296H228.368V52.296ZM223.219 88.1762C220.48 90.6375 216.979 91.896 212.632 91.896V93.896C217.394 93.896 221.396 92.5038 224.556 89.6638L223.219 88.1762ZM212.632 91.896C208.285 91.896 204.761 90.6375 201.983 88.1721L200.656 89.6679C203.851 92.5038 207.869 93.896 212.632 93.896V91.896ZM201.993 88.1809C199.294 85.7211 197.896 82.2618 197.896 77.664H195.896C195.896 82.6982 197.446 86.7429 200.646 89.6591L201.993 88.1809ZM197.896 77.664V52.296H195.896V77.664H197.896ZM196.896 53.296H205.744V51.296H196.896V53.296ZM204.744 52.296V76.936H206.744V52.296H204.744ZM204.744 76.936C204.744 79.4498 205.384 81.5294 206.818 83.0081L208.253 81.6159C207.298 80.6306 206.744 79.1262 206.744 76.936H204.744ZM206.828 83.0191C208.291 84.4819 210.269 85.16 212.632 85.16V83.16C210.663 83.16 209.244 82.6061 208.243 81.6049L206.828 83.0191ZM212.632 85.16C214.992 85.16 216.96 84.4823 218.389 83.0081L216.954 81.6159C215.994 82.6057 214.601 83.16 212.632 83.16V85.16ZM218.379 83.0191C219.856 81.5414 220.52 79.4578 220.52 76.936H218.52C218.52 79.1182 217.951 80.6186 216.964 81.6049L218.379 83.0191ZM220.52 76.936V52.296H218.52V76.936H220.52ZM219.52 53.296H228.368V51.296H219.52V53.296ZM227.368 52.296V77.664H229.368V52.296H227.368ZM227.368 77.664C227.368 82.2578 225.953 85.7158 223.219 88.1767L224.556 89.6633C227.796 86.7482 229.368 82.7022 229.368 77.664H227.368ZM252.957 92L252.056 92.4335L252.329 93H252.957V92ZM245.845 77.216L246.746 76.7825L246.474 76.216H245.845V77.216ZM242.709 77.216V76.216H241.709V77.216H242.709ZM242.709 92V93H243.709V92H242.709ZM233.861 92H232.861V93H233.861V92ZM233.861 52.296V51.296H232.861V52.296H233.861ZM258.893 55.824L258.186 56.5311L258.192 56.5367L258.893 55.824ZM260.405 71.728L261.22 72.3078L261.225 72.3004L260.405 71.728ZM254.637 75.928L254.308 74.9837L253.233 75.3585L253.743 76.3765L254.637 75.928ZM262.701 92V93H264.322L263.595 91.5515L262.701 92ZM242.709 69.6H241.709V70.6H242.709V69.6ZM252.061 68.312L252.724 69.061L252.732 69.054L252.739 69.0468L252.061 68.312ZM252.061 61.256L251.399 62.005L252.061 61.256ZM242.709 59.968V58.968H241.709V59.968H242.709ZM253.858 91.5665L246.746 76.7825L244.944 77.6495L252.056 92.4335L253.858 91.5665ZM245.845 76.216H242.709V78.216H245.845V76.216ZM241.709 77.216V92H243.709V77.216H241.709ZM242.709 91H233.861V93H242.709V91ZM234.861 92V52.296H232.861V92H234.861ZM233.861 53.296H249.597V51.296H233.861V53.296ZM249.597 53.296C253.222 53.296 256.051 54.3961 258.186 56.5311L259.6 55.1169C257.031 52.5479 253.663 51.296 249.597 51.296V53.296ZM258.192 56.5367C260.376 58.6868 261.477 61.3914 261.477 64.728H263.477C263.477 60.8966 262.189 57.6652 259.595 55.1113L258.192 56.5367ZM261.477 64.728C261.477 67.2356 260.836 69.3637 259.585 71.1556L261.225 72.3004C262.737 70.135 263.477 67.5964 263.477 64.728H261.477ZM259.59 71.1482C258.341 72.9045 256.596 74.1864 254.308 74.9837L254.966 76.8723C257.607 75.9522 259.707 74.4341 261.22 72.3078L259.59 71.1482ZM253.743 76.3765L261.807 92.4485L263.595 91.5515L255.531 75.4795L253.743 76.3765ZM262.701 91H252.957V93H262.701V91ZM242.709 70.6H247.917V68.6H242.709V70.6ZM247.917 70.6C249.86 70.6 251.511 70.1342 252.724 69.061L251.399 67.563C250.67 68.2072 249.559 68.6 247.917 68.6V70.6ZM252.739 69.0468C253.937 67.941 254.517 66.4874 254.517 64.784H252.517C252.517 65.9926 252.126 66.891 251.383 67.5772L252.739 69.0468ZM254.517 64.784C254.517 63.0524 253.943 61.5853 252.724 60.507L251.399 62.005C252.121 62.6441 252.517 63.5289 252.517 64.784H254.517ZM252.724 60.507C251.511 59.4338 249.86 58.968 247.917 58.968V60.968C249.559 60.968 250.67 61.3608 251.399 62.005L252.724 60.507ZM247.917 58.968H242.709V60.968H247.917V58.968ZM241.709 59.968V69.6H243.709V59.968H241.709ZM80.3639 139.656H79.3639V140.656H80.3639V139.656ZM93.4679 136.744L92.7874 136.011L92.7809 136.017L93.4679 136.744ZM93.4679 119.552L92.7809 120.279L92.7875 120.285L93.4679 119.552ZM80.3639 116.64V115.64H79.3639V116.64H80.3639ZM71.5159 148H70.5159V149H71.5159V148ZM71.5159 108.296V107.296H70.5159V108.296H71.5159ZM100.356 113.672L99.6525 114.383L99.6561 114.386L100.356 113.672ZM100.356 142.68L101.056 143.394L101.056 143.394L100.356 142.68ZM80.3639 140.656H85.5159V138.656H80.3639V140.656ZM85.5159 140.656C88.9784 140.656 91.8881 139.614 94.1549 137.471L92.7809 136.017C90.9411 137.757 88.5494 138.656 85.5159 138.656V140.656ZM94.1484 137.477C96.5026 135.291 97.6039 132.131 97.6039 128.176H95.6039C95.6039 131.762 94.6145 134.315 92.7875 136.011L94.1484 137.477ZM97.6039 128.176C97.6039 124.187 96.5045 121.007 94.1484 118.819L92.7875 120.285C94.6126 121.98 95.6039 124.549 95.6039 128.176H97.6039ZM94.1549 118.825C91.8881 116.682 88.9784 115.64 85.5159 115.64V117.64C88.5494 117.64 90.9411 118.539 92.7809 120.279L94.1549 118.825ZM85.5159 115.64H80.3639V117.64H85.5159V115.64ZM79.3639 116.64V139.656H81.3639V116.64H79.3639ZM85.8519 147H71.5159V149H85.8519V147ZM72.5159 148V108.296H70.5159V148H72.5159ZM71.5159 109.296H85.9079V107.296H71.5159V109.296ZM85.9079 109.296C91.706 109.296 96.2517 111.017 99.6525 114.383L101.059 112.961C97.2175 109.159 92.1311 107.296 85.9079 107.296V109.296ZM99.6561 114.386C103.087 117.747 104.844 122.305 104.844 128.176H106.844C106.844 121.876 104.942 116.765 101.056 112.958L99.6561 114.386ZM104.844 128.176C104.844 134.047 103.087 138.605 99.6561 141.966L101.056 143.394C104.942 139.587 106.844 134.476 106.844 128.176H104.844ZM99.6562 141.966C96.2571 145.295 91.6923 147 85.8519 147V149C92.1075 149 97.212 147.159 101.056 143.394L99.6562 141.966ZM133.761 148L132.819 148.334L133.055 149H133.761V148ZM130.905 139.936L131.848 139.602L131.612 138.936H130.905V139.936ZM115.561 139.936V138.936H114.855L114.619 139.602L115.561 139.936ZM112.705 148V149H113.412L113.648 148.334L112.705 148ZM103.409 148L102.473 147.648L101.964 149H103.409V148ZM118.361 108.296V107.296H117.669L117.425 107.944L118.361 108.296ZM128.609 108.296L129.546 107.947L129.304 107.296H128.609V108.296ZM143.393 148V149H144.833L144.33 147.651L143.393 148ZM123.345 118.152L124.29 117.824L123.356 115.133L122.403 117.817L123.345 118.152ZM118.473 131.872L117.531 131.537L117.057 132.872H118.473V131.872ZM128.105 131.872V132.872H129.511L129.05 131.544L128.105 131.872ZM134.704 147.666L131.848 139.602L129.963 140.27L132.819 148.334L134.704 147.666ZM130.905 138.936H115.561V140.936H130.905V138.936ZM114.619 139.602L111.763 147.666L113.648 148.334L116.504 140.27L114.619 139.602ZM112.705 147H103.409V149H112.705V147ZM104.345 148.352L119.297 108.648L117.425 107.944L102.473 147.648L104.345 148.352ZM118.361 109.296H128.609V107.296H118.361V109.296ZM127.672 108.645L142.456 148.349L144.33 147.651L129.546 107.947L127.672 108.645ZM143.393 147H133.761V149H143.393V147ZM122.403 117.817L117.531 131.537L119.416 132.207L124.288 118.487L122.403 117.817ZM118.473 132.872H128.105V130.872H118.473V132.872ZM129.05 131.544L124.29 117.824L122.4 118.48L127.16 132.2L129.05 131.544ZM171.894 116.752V117.752H172.894V116.752H171.894ZM159.63 116.752V115.752H158.63V116.752H159.63ZM159.63 148V149H160.63V148H159.63ZM150.782 148H149.782V149H150.782V148ZM150.782 116.752H151.782V115.752H150.782V116.752ZM138.574 116.752H137.574V117.752H138.574V116.752ZM138.574 108.296V107.296H137.574V108.296H138.574ZM171.894 108.296H172.894V107.296H171.894V108.296ZM171.894 115.752H159.63V117.752H171.894V115.752ZM158.63 116.752V148H160.63V116.752H158.63ZM159.63 147H150.782V149H159.63V147ZM151.782 148V116.752H149.782V148H151.782ZM150.782 115.752H138.574V117.752H150.782V115.752ZM139.574 116.752V108.296H137.574V116.752H139.574ZM138.574 109.296H171.894V107.296H138.574V109.296ZM170.894 108.296V116.752H172.894V108.296H170.894ZM199.66 148V149H200.66V148H199.66ZM174.46 148H173.46V149H174.46V148ZM174.46 108.296V107.296H173.46V108.296H174.46ZM199.604 108.296H200.604V107.296H199.604V108.296ZM199.604 116.64V117.64H200.604V116.64H199.604ZM183.308 116.64V115.64H182.308V116.64H183.308ZM183.308 124.2H182.308V125.2H183.308V124.2ZM198.092 124.2H199.092V123.2H198.092V124.2ZM198.092 131.984V132.984H199.092V131.984H198.092ZM183.308 131.984V130.984H182.308V131.984H183.308ZM183.308 139.6H182.308V140.6H183.308V139.6ZM199.66 139.6H200.66V138.6H199.66V139.6ZM199.66 147H174.46V149H199.66V147ZM175.46 148V108.296H173.46V148H175.46ZM174.46 109.296H199.604V107.296H174.46V109.296ZM198.604 108.296V116.64H200.604V108.296H198.604ZM199.604 115.64H183.308V117.64H199.604V115.64ZM182.308 116.64V124.2H184.308V116.64H182.308ZM183.308 125.2H198.092V123.2H183.308V125.2ZM197.092 124.2V131.984H199.092V124.2H197.092ZM198.092 130.984H183.308V132.984H198.092V130.984ZM182.308 131.984V139.6H184.308V131.984H182.308ZM183.308 140.6H199.66V138.6H183.308V140.6ZM198.66 139.6V148H200.66V139.6H198.66Z" fill="black"/>
</g>
<rect x="43" y="176" width="184" height="48" rx="24" fill="black"/>
<path d="M70.5648 198.422L67.1588 198.318C67.0721 197.92 67.0288 197.53 67.0288 197.148C67.0288 195.588 67.5835 194.262 68.6928 193.17C69.8021 192.061 71.3015 191.506 73.1908 191.506C75.0281 191.506 76.5015 192.035 77.6108 193.092C78.7201 194.132 79.2748 195.415 79.2748 196.94C79.2748 199.09 78.1828 200.832 75.9988 202.166L72.7488 204.142C71.9861 204.628 71.5008 205.139 71.2928 205.676H79.3788V208.77H66.8988C66.9161 207.193 67.2195 205.815 67.8088 204.636C68.4155 203.458 69.4381 202.435 70.8768 201.568L73.6588 199.904C74.9935 199.107 75.6608 198.136 75.6608 196.992C75.6608 196.351 75.4355 195.805 74.9848 195.354C74.5515 194.904 73.9275 194.678 73.1128 194.678C72.2461 194.678 71.5788 194.938 71.1108 195.458C70.6601 195.978 70.4348 196.654 70.4348 197.486C70.4348 197.798 70.4781 198.11 70.5648 198.422ZM87.048 198.812C87.8106 198.795 88.4173 198.578 88.868 198.162C89.3186 197.746 89.544 197.226 89.544 196.602C89.544 196.013 89.3186 195.51 88.868 195.094C88.4173 194.678 87.8106 194.47 87.048 194.47C86.3026 194.47 85.7046 194.678 85.254 195.094C84.8033 195.51 84.578 196.013 84.578 196.602C84.578 197.226 84.7946 197.746 85.228 198.162C85.6786 198.578 86.2853 198.795 87.048 198.812ZM84.968 205.52C85.4706 205.971 86.164 206.196 87.048 206.196C87.932 206.196 88.6253 205.971 89.128 205.52C89.648 205.052 89.908 204.498 89.908 203.856C89.908 203.198 89.6566 202.634 89.154 202.166C88.6513 201.698 87.9493 201.464 87.048 201.464C86.1466 201.464 85.4446 201.698 84.942 202.166C84.4566 202.634 84.214 203.198 84.214 203.856C84.214 204.498 84.4653 205.052 84.968 205.52ZM91.65 207.782C90.4886 208.701 88.9546 209.16 87.048 209.16C85.1413 209.16 83.5986 208.701 82.42 207.782C81.2586 206.864 80.678 205.676 80.678 204.22C80.678 203.319 80.9466 202.496 81.484 201.75C82.0386 201.005 82.7666 200.459 83.668 200.112C82.8533 199.818 82.2033 199.315 81.718 198.604C81.25 197.876 81.016 197.122 81.016 196.342C81.016 194.921 81.5793 193.76 82.706 192.858C83.85 191.957 85.2973 191.506 87.048 191.506C88.7986 191.506 90.2373 191.957 91.364 192.858C92.508 193.76 93.08 194.921 93.08 196.342C93.08 197.122 92.846 197.876 92.378 198.604C91.91 199.315 91.2686 199.818 90.454 200.112C91.338 200.442 92.0486 200.988 92.586 201.75C93.1406 202.496 93.418 203.319 93.418 204.22C93.418 205.676 92.8287 206.864 91.65 207.782ZM100.345 203.154V201.932L103.803 201.308V202.998C103.82 203.917 104.054 204.61 104.505 205.078C104.973 205.529 105.588 205.754 106.351 205.754C107.096 205.754 107.686 205.512 108.119 205.026C108.57 204.541 108.795 203.891 108.795 203.076V190.336H112.383V203.076C112.383 204.775 111.82 206.214 110.693 207.392C109.566 208.571 108.128 209.16 106.377 209.16C104.557 209.16 103.092 208.614 101.983 207.522C100.891 206.413 100.345 204.957 100.345 203.154ZM114.768 205.286C114.768 204.194 115.123 203.319 115.834 202.66C116.544 202.002 117.463 201.586 118.59 201.412L121.736 200.944C122.377 200.858 122.698 200.554 122.698 200.034C122.698 199.549 122.507 199.15 122.126 198.838C121.762 198.526 121.233 198.37 120.54 198.37C119.812 198.37 119.231 198.57 118.798 198.968C118.382 199.367 118.148 199.861 118.096 200.45L115.028 199.8C115.149 198.691 115.695 197.712 116.666 196.862C117.636 196.013 118.919 195.588 120.514 195.588C122.42 195.588 123.824 196.048 124.726 196.966C125.627 197.868 126.078 199.029 126.078 200.45V206.742C126.078 207.505 126.13 208.181 126.234 208.77H123.062C122.975 208.389 122.932 207.878 122.932 207.236C122.117 208.502 120.86 209.134 119.162 209.134C117.844 209.134 116.778 208.753 115.964 207.99C115.166 207.228 114.768 206.326 114.768 205.286ZM119.89 206.56C120.704 206.56 121.372 206.335 121.892 205.884C122.429 205.416 122.698 204.654 122.698 203.596V203.024L119.812 203.466C118.754 203.622 118.226 204.16 118.226 205.078C118.226 205.494 118.373 205.85 118.668 206.144C118.962 206.422 119.37 206.56 119.89 206.56ZM132.501 201.412V208.77H129.043V195.978H132.397V197.564C132.761 196.94 133.281 196.464 133.957 196.134C134.633 195.805 135.344 195.64 136.089 195.64C137.597 195.64 138.741 196.117 139.521 197.07C140.319 198.006 140.717 199.22 140.717 200.71V208.77H137.259V201.308C137.259 200.546 137.06 199.93 136.661 199.462C136.28 198.994 135.691 198.76 134.893 198.76C134.165 198.76 133.585 199.012 133.151 199.514C132.718 200.017 132.501 200.65 132.501 201.412ZM152.263 198.422L148.857 198.318C148.77 197.92 148.727 197.53 148.727 197.148C148.727 195.588 149.281 194.262 150.391 193.17C151.5 192.061 152.999 191.506 154.889 191.506C156.726 191.506 158.199 192.035 159.309 193.092C160.418 194.132 160.973 195.415 160.973 196.94C160.973 199.09 159.881 200.832 157.697 202.166L154.447 204.142C153.684 204.628 153.199 205.139 152.991 205.676H161.077V208.77H148.597C148.614 207.193 148.917 205.815 149.507 204.636C150.113 203.458 151.136 202.435 152.575 201.568L155.357 199.904C156.691 199.107 157.359 198.136 157.359 196.992C157.359 196.351 157.133 195.805 156.683 195.354C156.249 194.904 155.625 194.678 154.811 194.678C153.944 194.678 153.277 194.938 152.809 195.458C152.358 195.978 152.133 196.654 152.133 197.486C152.133 197.798 152.176 198.11 152.263 198.422ZM166.926 196.056C166.319 197.01 166.016 198.44 166.016 200.346C166.016 202.253 166.319 203.683 166.926 204.636C167.498 205.555 168.347 206.014 169.474 206.014C170.583 206.014 171.424 205.555 171.996 204.636C172.62 203.7 172.932 202.27 172.932 200.346C172.932 198.422 172.62 196.992 171.996 196.056C171.424 195.138 170.583 194.678 169.474 194.678C168.347 194.678 167.498 195.138 166.926 196.056ZM163.91 206.352C162.922 204.844 162.428 202.842 162.428 200.346C162.428 197.85 162.922 195.848 163.91 194.34C165.175 192.451 167.03 191.506 169.474 191.506C171.918 191.506 173.764 192.451 175.012 194.34C176.017 195.866 176.52 197.868 176.52 200.346C176.52 202.825 176.017 204.827 175.012 206.352C173.764 208.242 171.918 209.186 169.474 209.186C167.03 209.186 165.175 208.242 163.91 206.352ZM181.488 198.422L178.082 198.318C177.996 197.92 177.952 197.53 177.952 197.148C177.952 195.588 178.507 194.262 179.616 193.17C180.726 192.061 182.225 191.506 184.114 191.506C185.952 191.506 187.425 192.035 188.534 193.092C189.644 194.132 190.198 195.415 190.198 196.94C190.198 199.09 189.106 200.832 186.922 202.166L183.672 204.142C182.91 204.628 182.424 205.139 182.216 205.676H190.302V208.77H177.822C177.84 207.193 178.143 205.815 178.732 204.636C179.339 203.458 180.362 202.435 181.8 201.568L184.582 199.904C185.917 199.107 186.584 198.136 186.584 196.992C186.584 196.351 186.359 195.805 185.908 195.354C185.475 194.904 184.851 194.678 184.036 194.678C183.17 194.678 182.502 194.938 182.034 195.458C181.584 195.978 181.358 196.654 181.358 197.486C181.358 197.798 181.402 198.11 181.488 198.422ZM196.228 201.282L194.642 198.786L199.062 194.99H191.678V191.896H203.612V194.782L199.244 198.422C200.578 198.474 201.722 198.977 202.676 199.93C203.646 200.866 204.132 202.08 204.132 203.57C204.132 205.096 203.542 206.413 202.364 207.522C201.185 208.614 199.616 209.16 197.658 209.16C195.768 209.16 194.234 208.64 193.056 207.6C191.877 206.543 191.236 205.269 191.132 203.778L194.59 203.102C194.624 203.969 194.919 204.68 195.474 205.234C196.046 205.789 196.774 206.066 197.658 206.066C198.524 206.066 199.218 205.824 199.738 205.338C200.258 204.853 200.518 204.246 200.518 203.518C200.518 202.738 200.258 202.132 199.738 201.698C199.235 201.248 198.576 201.022 197.762 201.022C197.224 201.022 196.713 201.109 196.228 201.282Z" fill="white"/>
<defs>
<filter id="filter0_d_631_752" x="9.54272" y="51.456" width="259.158" height="102.544" filterUnits="userSpaceOnUse" color-interpolation-filters="sRGB">
<feFlood flood-opacity="0" result="BackgroundImageFix"/>
<feColorMatrix in="SourceAlpha" type="matrix" values="0 0 0 0 0 0 0 0 0 0 0 0 0 0 0 0 0 0 127 0" result="hardAlpha"/>
<feOffset dx="6" dy="6"/>
<feComposite in2="hardAlpha" operator="out"/>
<feColorMatrix type="matrix" values="0 0 0 0 0 0 0 0 0 0 0 0 0 0 0 0 0 0 1 0"/>
<feBlend mode="normal" in2="BackgroundImageFix" result="effect1_dropShadow_631_752"/>
<feBlend mode="normal" in="SourceGraphic" in2="effect1_dropShadow_631_752" result="shape"/>
</filter>
</defs>
</svg>
