<svg width="17" height="16" viewBox="0 0 17 16" fill="none" xmlns="http://www.w3.org/2000/svg">
<path d="M12.4263 0C11.0562 0 9.83584 0.641937 8.98127 1.64741C8.73822 1.93338 8.26166 1.93338 8.01861 1.64741C7.16407 0.641935 5.94373 0 4.57357 0C2.04779 0 0 2.16142 0 4.82765C0 5.71185 0.288036 6.60618 0.644842 7.39826C1.59301 9.50235 3.31662 11.2691 4.91333 12.8318C5.48862 13.395 6.07789 13.9443 6.68042 14.4768C7.72255 15.398 9.27738 15.3979 10.3195 14.4767C10.9221 13.9441 11.5114 13.3948 12.0867 12.8316C13.6831 11.2691 15.4068 9.50229 16.3552 7.398C16.712 6.60631 17 5.71211 17 4.82765C17 2.16142 14.9521 0 12.4263 0Z" fill="#DCA509"/>
</svg>
