<svg width="28" height="28" viewBox="0 0 28 28" fill="none" xmlns="http://www.w3.org/2000/svg">
<path fill-rule="evenodd" clip-rule="evenodd" d="M8.51138 2.36621C5.60337 2.36622 2.95775 4.72788 2.95775 7.61306V20.1543C2.95775 23.1791 5.47491 25.6338 8.51139 25.6338H19.7041H19.875V25.6312C22.8344 25.5412 25.2577 23.1222 25.2577 20.1543V7.61306C25.2577 4.78449 22.7149 2.4591 19.875 2.36893V2.36621H19.7041H8.51139H8.51138ZM16.4645 7.28169C15.4919 7.28169 14.6476 7.80757 14.1549 8.5841C13.6622 7.80757 12.8179 7.28169 11.8453 7.28169C10.3595 7.28169 9.15491 8.49749 9.15491 9.99724C9.15491 10.4946 9.32435 10.9977 9.53423 11.4432C10.092 12.6268 11.1059 13.6206 12.0451 14.4996C12.7171 15.1286 13.4214 15.7269 14.1549 16.2817C14.8884 15.7267 15.5928 15.1284 16.2647 14.4995C17.2038 13.6206 18.2177 12.6267 18.7756 11.4431C18.9855 10.9977 19.1549 10.4948 19.1549 9.99724C19.1549 8.49749 17.9503 7.28169 16.4646 7.28169H16.4645ZM10.4741 21.0986H18.108C18.6834 21.0986 19.1605 20.6167 19.1605 20.0356C19.1605 19.4545 18.6834 18.9868 18.108 18.9868H10.4741C9.89872 18.9868 9.42159 19.4545 9.42159 20.0356C9.42159 20.6167 9.89872 21.0986 10.4741 21.0986Z" fill="#CCCCCC"/>
</svg>
