<svg width="168" height="31" viewBox="0 0 168 31" fill="none" xmlns="http://www.w3.org/2000/svg">
<path d="M5.45442 23.2302C4.64176 23.2302 3.91342 23.0769 3.26942 22.7702C2.64076 22.4482 2.14242 22.0189 1.77442 21.4822C1.42176 20.9456 1.24542 20.3399 1.24542 19.6652C1.24542 18.8372 1.46009 18.1856 1.88942 17.7102C2.31876 17.2196 3.01642 16.8669 3.98242 16.6522C4.94842 16.4376 6.24409 16.3302 7.86942 16.3302H9.01942V17.9862H7.89242C6.94176 17.9862 6.18276 18.0322 5.61542 18.1242C5.04809 18.2162 4.64176 18.3772 4.39642 18.6072C4.16642 18.8219 4.05142 19.1286 4.05142 19.5272C4.05142 20.0332 4.22776 20.4472 4.58042 20.7692C4.93309 21.0912 5.42376 21.2522 6.05242 21.2522C6.55842 21.2522 7.00309 21.1372 7.38642 20.9072C7.78509 20.6619 8.09942 20.3322 8.32942 19.9182C8.55942 19.5042 8.67442 19.0289 8.67442 18.4922V15.8472C8.67442 15.0806 8.50576 14.5286 8.16842 14.1912C7.83109 13.8539 7.26376 13.6852 6.46642 13.6852C6.02176 13.6852 5.53876 13.7389 5.01742 13.8462C4.51142 13.9536 3.97476 14.1376 3.40742 14.3982C3.11609 14.5362 2.85542 14.5746 2.62542 14.5132C2.41076 14.4519 2.24209 14.3292 2.11942 14.1452C1.99676 13.9459 1.93542 13.7312 1.93542 13.5012C1.93542 13.2712 1.99676 13.0489 2.11942 12.8342C2.24209 12.6042 2.44909 12.4356 2.74042 12.3282C3.44576 12.0369 4.12042 11.8299 4.76442 11.7072C5.42376 11.5846 6.02176 11.5232 6.55842 11.5232C7.66242 11.5232 8.56709 11.6919 9.27242 12.0292C9.99309 12.3666 10.5298 12.8802 10.8824 13.5702C11.2351 14.2449 11.4114 15.1189 11.4114 16.1922V21.7122C11.4114 22.1876 11.2964 22.5556 11.0664 22.8162C10.8364 23.0616 10.5068 23.1842 10.0774 23.1842C9.64809 23.1842 9.31076 23.0616 9.06542 22.8162C8.83542 22.5556 8.72042 22.1876 8.72042 21.7122V20.6082H8.90442C8.79709 21.1449 8.58242 21.6126 8.26042 22.0112C7.95376 22.3946 7.56276 22.6936 7.08742 22.9082C6.61209 23.1229 6.06776 23.2302 5.45442 23.2302ZM15.2955 23.1842C14.8355 23.1842 14.4829 23.0616 14.2375 22.8162C13.9922 22.5556 13.8695 22.1876 13.8695 21.7122V13.0182C13.8695 12.5429 13.9922 12.1826 14.2375 11.9372C14.4829 11.6919 14.8279 11.5692 15.2725 11.5692C15.7172 11.5692 16.0622 11.6919 16.3075 11.9372C16.5529 12.1826 16.6755 12.5429 16.6755 13.0182V14.5822L16.4225 14.0072C16.7599 13.1946 17.2812 12.5812 17.9865 12.1672C18.7072 11.7379 19.5199 11.5232 20.4245 11.5232C21.3292 11.5232 22.0729 11.6919 22.6555 12.0292C23.2382 12.3666 23.6752 12.8802 23.9665 13.5702C24.2579 14.2449 24.4035 15.1036 24.4035 16.1462V21.7122C24.4035 22.1876 24.2809 22.5556 24.0355 22.8162C23.7902 23.0616 23.4375 23.1842 22.9775 23.1842C22.5175 23.1842 22.1572 23.0616 21.8965 22.8162C21.6512 22.5556 21.5285 22.1876 21.5285 21.7122V16.2842C21.5285 15.4102 21.3599 14.7739 21.0225 14.3752C20.7005 13.9766 20.1945 13.7772 19.5045 13.7772C18.6612 13.7772 17.9865 14.0456 17.4805 14.5822C16.9899 15.1036 16.7445 15.8012 16.7445 16.6752V21.7122C16.7445 22.6936 16.2615 23.1842 15.2955 23.1842ZM31.9927 23.2302C30.8273 23.2302 29.8153 22.9926 28.9567 22.5172C28.098 22.0419 27.431 21.3672 26.9557 20.4932C26.4803 19.6039 26.2427 18.5612 26.2427 17.3652C26.2427 16.4606 26.373 15.6556 26.6337 14.9502C26.9097 14.2296 27.3007 13.6162 27.8067 13.1102C28.3127 12.5889 28.9183 12.1979 29.6237 11.9372C30.329 11.6612 31.1187 11.5232 31.9927 11.5232C33.158 11.5232 34.17 11.7609 35.0287 12.2362C35.8873 12.7116 36.5543 13.3862 37.0297 14.2602C37.505 15.1342 37.7427 16.1692 37.7427 17.3652C37.7427 18.2699 37.6047 19.0826 37.3287 19.8032C37.068 20.5239 36.6847 21.1449 36.1787 21.6662C35.6727 22.1722 35.067 22.5632 34.3617 22.8392C33.6563 23.0999 32.8667 23.2302 31.9927 23.2302ZM31.9927 21.0452C32.56 21.0452 33.0583 20.9072 33.4877 20.6312C33.917 20.3552 34.2467 19.9489 34.4767 19.4122C34.722 18.8602 34.8447 18.1779 34.8447 17.3652C34.8447 16.1386 34.584 15.2262 34.0627 14.6282C33.5413 14.0149 32.8513 13.7082 31.9927 13.7082C31.4253 13.7082 30.927 13.8462 30.4977 14.1222C30.0683 14.3829 29.731 14.7892 29.4857 15.3412C29.2557 15.8779 29.1407 16.5526 29.1407 17.3652C29.1407 18.5766 29.4013 19.4966 29.9227 20.1252C30.444 20.7386 31.134 21.0452 31.9927 21.0452ZM44.7846 23.2302C43.6193 23.2302 42.6073 22.9926 41.7486 22.5172C40.8899 22.0419 40.2229 21.3672 39.7476 20.4932C39.2723 19.6039 39.0346 18.5612 39.0346 17.3652C39.0346 16.4606 39.1649 15.6556 39.4256 14.9502C39.7016 14.2296 40.0926 13.6162 40.5986 13.1102C41.1046 12.5889 41.7103 12.1979 42.4156 11.9372C43.1209 11.6612 43.9106 11.5232 44.7846 11.5232C45.9499 11.5232 46.9619 11.7609 47.8206 12.2362C48.6793 12.7116 49.3463 13.3862 49.8216 14.2602C50.2969 15.1342 50.5346 16.1692 50.5346 17.3652C50.5346 18.2699 50.3966 19.0826 50.1206 19.8032C49.8599 20.5239 49.4766 21.1449 48.9706 21.6662C48.4646 22.1722 47.8589 22.5632 47.1536 22.8392C46.4483 23.0999 45.6586 23.2302 44.7846 23.2302ZM44.7846 21.0452C45.3519 21.0452 45.8503 20.9072 46.2796 20.6312C46.7089 20.3552 47.0386 19.9489 47.2686 19.4122C47.5139 18.8602 47.6366 18.1779 47.6366 17.3652C47.6366 16.1386 47.3759 15.2262 46.8546 14.6282C46.3333 14.0149 45.6433 13.7082 44.7846 13.7082C44.2173 13.7082 43.7189 13.8462 43.2896 14.1222C42.8603 14.3829 42.5229 14.7892 42.2776 15.3412C42.0476 15.8779 41.9326 16.5526 41.9326 17.3652C41.9326 18.5766 42.1933 19.4966 42.7146 20.1252C43.2359 20.7386 43.9259 21.0452 44.7846 21.0452ZM53.8736 27.3242C53.4136 27.3242 53.0609 27.2016 52.8156 26.9562C52.5702 26.7109 52.4476 26.3506 52.4476 25.8752V13.0182C52.4476 12.5429 52.5702 12.1826 52.8156 11.9372C53.0609 11.6919 53.4059 11.5692 53.8506 11.5692C54.3106 11.5692 54.6632 11.6919 54.9086 11.9372C55.1539 12.1826 55.2766 12.5429 55.2766 13.0182V14.8122L55.0236 14.1222C55.2536 13.3402 55.7212 12.7116 56.4266 12.2362C57.1472 11.7609 57.9829 11.5232 58.9336 11.5232C59.9149 11.5232 60.7736 11.7609 61.5096 12.2362C62.2609 12.7116 62.8436 13.3862 63.2576 14.2602C63.6716 15.1189 63.8786 16.1539 63.8786 17.3652C63.8786 18.5612 63.6716 19.6039 63.2576 20.4932C62.8436 21.3672 62.2686 22.0419 61.5326 22.5172C60.7966 22.9926 59.9302 23.2302 58.9336 23.2302C57.9982 23.2302 57.1779 23.0002 56.4726 22.5402C55.7672 22.0649 55.2919 21.4516 55.0466 20.7002H55.3226V25.8752C55.3226 26.3506 55.1922 26.7109 54.9316 26.9562C54.6862 27.2016 54.3336 27.3242 53.8736 27.3242ZM58.1286 21.0452C58.6959 21.0452 59.1942 20.9072 59.6236 20.6312C60.0529 20.3552 60.3826 19.9489 60.6126 19.4122C60.8579 18.8602 60.9806 18.1779 60.9806 17.3652C60.9806 16.1386 60.7199 15.2262 60.1986 14.6282C59.6772 14.0149 58.9872 13.7082 58.1286 13.7082C57.5612 13.7082 57.0629 13.8462 56.6336 14.1222C56.2042 14.3829 55.8669 14.7892 55.6216 15.3412C55.3916 15.8779 55.2766 16.5526 55.2766 17.3652C55.2766 18.5766 55.5372 19.4966 56.0586 20.1252C56.5799 20.7386 57.2699 21.0452 58.1286 21.0452Z" fill="#DCA509"/>
<path d="M105.097 27.37C104.269 27.37 103.464 27.2933 102.682 27.14C101.916 26.9867 101.218 26.749 100.589 26.427C100.298 26.2737 100.099 26.0897 99.9915 25.875C99.8995 25.6603 99.8688 25.438 99.8995 25.208C99.9455 24.9933 100.037 24.8017 100.175 24.633C100.329 24.4643 100.513 24.3493 100.727 24.288C100.942 24.2267 101.164 24.2573 101.394 24.38C102.069 24.7173 102.705 24.932 103.303 25.024C103.917 25.1313 104.438 25.185 104.867 25.185C105.895 25.185 106.661 24.932 107.167 24.426C107.689 23.9353 107.949 23.1993 107.949 22.218V20.148H108.156C107.926 20.93 107.443 21.5587 106.707 22.034C105.987 22.494 105.166 22.724 104.246 22.724C103.234 22.724 102.353 22.494 101.601 22.034C100.85 21.5587 100.267 20.8993 99.8535 20.056C99.4395 19.2127 99.2325 18.2313 99.2325 17.112C99.2325 16.2687 99.3475 15.5097 99.5775 14.835C99.8228 14.145 100.16 13.5547 100.589 13.064C101.034 12.5733 101.563 12.1977 102.176 11.937C102.805 11.661 103.495 11.523 104.246 11.523C105.197 11.523 106.025 11.7607 106.73 12.236C107.451 12.696 107.919 13.3093 108.133 14.076L107.903 14.651V13.018C107.903 12.5427 108.026 12.1823 108.271 11.937C108.532 11.6917 108.885 11.569 109.329 11.569C109.789 11.569 110.142 11.6917 110.387 11.937C110.633 12.1823 110.755 12.5427 110.755 13.018V21.873C110.755 23.6977 110.272 25.07 109.306 25.99C108.34 26.91 106.937 27.37 105.097 27.37ZM105.028 20.539C105.626 20.539 106.14 20.401 106.569 20.125C106.999 19.849 107.328 19.458 107.558 18.952C107.804 18.4307 107.926 17.8173 107.926 17.112C107.926 16.054 107.666 15.226 107.144 14.628C106.623 14.0147 105.918 13.708 105.028 13.708C104.43 13.708 103.917 13.846 103.487 14.122C103.058 14.398 102.721 14.789 102.475 15.295C102.245 15.801 102.13 16.4067 102.13 17.112C102.13 18.17 102.391 19.0057 102.912 19.619C103.434 20.2323 104.139 20.539 105.028 20.539ZM118.403 23.23C117.238 23.23 116.226 22.9923 115.367 22.517C114.509 22.0417 113.842 21.367 113.366 20.493C112.891 19.6037 112.653 18.561 112.653 17.365C112.653 16.4603 112.784 15.6553 113.044 14.95C113.32 14.2293 113.711 13.616 114.217 13.11C114.723 12.5887 115.329 12.1977 116.034 11.937C116.74 11.661 117.529 11.523 118.403 11.523C119.569 11.523 120.581 11.7607 121.439 12.236C122.298 12.7113 122.965 13.386 123.44 14.26C123.916 15.134 124.153 16.169 124.153 17.365C124.153 18.2697 124.015 19.0823 123.739 19.803C123.479 20.5237 123.095 21.1447 122.589 21.666C122.083 22.172 121.478 22.563 120.772 22.839C120.067 23.0997 119.277 23.23 118.403 23.23ZM118.403 21.045C118.971 21.045 119.469 20.907 119.898 20.631C120.328 20.355 120.657 19.9487 120.887 19.412C121.133 18.86 121.255 18.1777 121.255 17.365C121.255 16.1383 120.995 15.226 120.473 14.628C119.952 14.0147 119.262 13.708 118.403 13.708C117.836 13.708 117.338 13.846 116.908 14.122C116.479 14.3827 116.142 14.789 115.896 15.341C115.666 15.8777 115.551 16.5523 115.551 17.365C115.551 18.5763 115.812 19.4963 116.333 20.125C116.855 20.7383 117.545 21.045 118.403 21.045ZM127.492 27.324C127.032 27.324 126.68 27.2013 126.434 26.956C126.189 26.7107 126.066 26.3503 126.066 25.875V13.018C126.066 12.5427 126.189 12.1823 126.434 11.937C126.68 11.6917 127.025 11.569 127.469 11.569C127.929 11.569 128.282 11.6917 128.527 11.937C128.773 12.1823 128.895 12.5427 128.895 13.018V14.812L128.642 14.122C128.872 13.34 129.34 12.7113 130.045 12.236C130.766 11.7607 131.602 11.523 132.552 11.523C133.534 11.523 134.392 11.7607 135.128 12.236C135.88 12.7113 136.462 13.386 136.876 14.26C137.29 15.1187 137.497 16.1537 137.497 17.365C137.497 18.561 137.29 19.6037 136.876 20.493C136.462 21.367 135.887 22.0417 135.151 22.517C134.415 22.9923 133.549 23.23 132.552 23.23C131.617 23.23 130.797 23 130.091 22.54C129.386 22.0647 128.911 21.4513 128.665 20.7H128.941V25.875C128.941 26.3503 128.811 26.7107 128.55 26.956C128.305 27.2013 127.952 27.324 127.492 27.324ZM131.747 21.045C132.315 21.045 132.813 20.907 133.242 20.631C133.672 20.355 134.001 19.9487 134.231 19.412C134.477 18.86 134.599 18.1777 134.599 17.365C134.599 16.1383 134.339 15.226 133.817 14.628C133.296 14.0147 132.606 13.708 131.747 13.708C131.18 13.708 130.682 13.846 130.252 14.122C129.823 14.3827 129.486 14.789 129.24 15.341C129.01 15.8777 128.895 16.5523 128.895 17.365C128.895 18.5763 129.156 19.4963 129.677 20.125C130.199 20.7383 130.889 21.045 131.747 21.045ZM140.823 23.161C140.363 23.161 140.011 23.023 139.765 22.747C139.52 22.471 139.397 22.0877 139.397 21.597V13.156C139.397 12.65 139.52 12.2667 139.765 12.006C140.011 11.73 140.363 11.592 140.823 11.592C141.283 11.592 141.636 11.73 141.881 12.006C142.142 12.2667 142.272 12.65 142.272 13.156V21.597C142.272 22.0877 142.15 22.471 141.904 22.747C141.659 23.023 141.299 23.161 140.823 23.161ZM140.823 9.453C140.287 9.453 139.865 9.32267 139.558 9.062C139.267 8.786 139.121 8.41033 139.121 7.935C139.121 7.44433 139.267 7.06867 139.558 6.808C139.865 6.54733 140.287 6.417 140.823 6.417C141.375 6.417 141.797 6.54733 142.088 6.808C142.38 7.06867 142.525 7.44433 142.525 7.935C142.525 8.41033 142.38 8.786 142.088 9.062C141.797 9.32267 141.375 9.453 140.823 9.453ZM146.226 23.184C145.766 23.184 145.413 23.0613 145.168 22.816C144.922 22.5553 144.8 22.1873 144.8 21.712V8.05C144.8 7.57467 144.922 7.21433 145.168 6.969C145.413 6.72367 145.766 6.601 146.226 6.601C146.686 6.601 147.038 6.72367 147.284 6.969C147.544 7.21433 147.675 7.57467 147.675 8.05V16.537H147.721L151.516 12.535C151.822 12.2283 152.091 11.9907 152.321 11.822C152.551 11.6533 152.865 11.569 153.264 11.569C153.662 11.569 153.961 11.6763 154.161 11.891C154.375 12.0903 154.483 12.3357 154.483 12.627C154.483 12.9183 154.345 13.2097 154.069 13.501L150.067 17.733V16.537L154.46 21.275C154.736 21.5663 154.858 21.8653 154.828 22.172C154.812 22.4633 154.69 22.7087 154.46 22.908C154.23 23.092 153.938 23.184 153.586 23.184C153.156 23.184 152.811 23.0997 152.551 22.931C152.305 22.7623 152.029 22.5093 151.723 22.172L147.721 17.986H147.675V21.712C147.675 22.6933 147.192 23.184 146.226 23.184ZM160.261 23.23C159.449 23.23 158.72 23.0767 158.076 22.77C157.448 22.448 156.949 22.0187 156.581 21.482C156.229 20.9453 156.052 20.3397 156.052 19.665C156.052 18.837 156.267 18.1853 156.696 17.71C157.126 17.2193 157.823 16.8667 158.789 16.652C159.755 16.4373 161.051 16.33 162.676 16.33H163.826V17.986H162.699C161.749 17.986 160.99 18.032 160.422 18.124C159.855 18.216 159.449 18.377 159.203 18.607C158.973 18.8217 158.858 19.1283 158.858 19.527C158.858 20.033 159.035 20.447 159.387 20.769C159.74 21.091 160.231 21.252 160.859 21.252C161.365 21.252 161.81 21.137 162.193 20.907C162.592 20.6617 162.906 20.332 163.136 19.918C163.366 19.504 163.481 19.0287 163.481 18.492V15.847C163.481 15.0803 163.313 14.5283 162.975 14.191C162.638 13.8537 162.071 13.685 161.273 13.685C160.829 13.685 160.346 13.7387 159.824 13.846C159.318 13.9533 158.782 14.1373 158.214 14.398C157.923 14.536 157.662 14.5743 157.432 14.513C157.218 14.4517 157.049 14.329 156.926 14.145C156.804 13.9457 156.742 13.731 156.742 13.501C156.742 13.271 156.804 13.0487 156.926 12.834C157.049 12.604 157.256 12.4353 157.547 12.328C158.253 12.0367 158.927 11.8297 159.571 11.707C160.231 11.5843 160.829 11.523 161.365 11.523C162.469 11.523 163.374 11.6917 164.079 12.029C164.8 12.3663 165.337 12.88 165.689 13.57C166.042 14.2447 166.218 15.1187 166.218 16.192V21.712C166.218 22.1873 166.103 22.5553 165.873 22.816C165.643 23.0613 165.314 23.184 164.884 23.184C164.455 23.184 164.118 23.0613 163.872 22.816C163.642 22.5553 163.527 22.1873 163.527 21.712V20.608H163.711C163.604 21.1447 163.389 21.6123 163.067 22.011C162.761 22.3943 162.37 22.6933 161.894 22.908C161.419 23.1227 160.875 23.23 160.261 23.23Z" fill="#DCA509"/>
</svg>
