<svg width="167" height="32" viewBox="0 0 167 32" fill="none" xmlns="http://www.w3.org/2000/svg">
<path d="M5.45442 23.3062C4.64176 23.3062 3.91342 23.1528 3.26942 22.8462C2.64076 22.5242 2.14242 22.0948 1.77442 21.5582C1.42176 21.0215 1.24542 20.4158 1.24542 19.7412C1.24542 18.9132 1.46009 18.2615 1.88942 17.7862C2.31876 17.2955 3.01642 16.9428 3.98242 16.7282C4.94842 16.5135 6.24409 16.4062 7.86942 16.4062H9.01942V18.0622H7.89242C6.94176 18.0622 6.18276 18.1082 5.61542 18.2002C5.04809 18.2922 4.64176 18.4532 4.39642 18.6832C4.16642 18.8978 4.05142 19.2045 4.05142 19.6032C4.05142 20.1092 4.22776 20.5232 4.58042 20.8452C4.93309 21.1672 5.42376 21.3282 6.05242 21.3282C6.55842 21.3282 7.00309 21.2132 7.38642 20.9832C7.78509 20.7378 8.09942 20.4082 8.32942 19.9942C8.55942 19.5802 8.67442 19.1048 8.67442 18.5682V15.9232C8.67442 15.1565 8.50576 14.6045 8.16842 14.2672C7.83109 13.9298 7.26376 13.7612 6.46642 13.7612C6.02176 13.7612 5.53876 13.8148 5.01742 13.9222C4.51142 14.0295 3.97476 14.2135 3.40742 14.4742C3.11609 14.6122 2.85542 14.6505 2.62542 14.5892C2.41076 14.5278 2.24209 14.4052 2.11942 14.2212C1.99676 14.0218 1.93542 13.8072 1.93542 13.5772C1.93542 13.3472 1.99676 13.1248 2.11942 12.9102C2.24209 12.6802 2.44909 12.5115 2.74042 12.4042C3.44576 12.1128 4.12042 11.9058 4.76442 11.7832C5.42376 11.6605 6.02176 11.5992 6.55842 11.5992C7.66242 11.5992 8.56709 11.7678 9.27242 12.1052C9.99309 12.4425 10.5298 12.9562 10.8824 13.6462C11.2351 14.3208 11.4114 15.1948 11.4114 16.2682V21.7882C11.4114 22.2635 11.2964 22.6315 11.0664 22.8922C10.8364 23.1375 10.5068 23.2602 10.0774 23.2602C9.64809 23.2602 9.31076 23.1375 9.06542 22.8922C8.83542 22.6315 8.72042 22.2635 8.72042 21.7882V20.6842H8.90442C8.79709 21.2208 8.58242 21.6885 8.26042 22.0872C7.95376 22.4705 7.56276 22.7695 7.08742 22.9842C6.61209 23.1988 6.06776 23.3062 5.45442 23.3062ZM15.2955 23.2602C14.8355 23.2602 14.4829 23.1375 14.2375 22.8922C13.9922 22.6315 13.8695 22.2635 13.8695 21.7882V13.0942C13.8695 12.6188 13.9922 12.2585 14.2375 12.0132C14.4829 11.7678 14.8279 11.6452 15.2725 11.6452C15.7172 11.6452 16.0622 11.7678 16.3075 12.0132C16.5529 12.2585 16.6755 12.6188 16.6755 13.0942V14.6582L16.4225 14.0832C16.7599 13.2705 17.2812 12.6572 17.9865 12.2432C18.7072 11.8138 19.5199 11.5992 20.4245 11.5992C21.3292 11.5992 22.0729 11.7678 22.6555 12.1052C23.2382 12.4425 23.6752 12.9562 23.9665 13.6462C24.2579 14.3208 24.4035 15.1795 24.4035 16.2222V21.7882C24.4035 22.2635 24.2809 22.6315 24.0355 22.8922C23.7902 23.1375 23.4375 23.2602 22.9775 23.2602C22.5175 23.2602 22.1572 23.1375 21.8965 22.8922C21.6512 22.6315 21.5285 22.2635 21.5285 21.7882V16.3602C21.5285 15.4862 21.3599 14.8498 21.0225 14.4512C20.7005 14.0525 20.1945 13.8532 19.5045 13.8532C18.6612 13.8532 17.9865 14.1215 17.4805 14.6582C16.9899 15.1795 16.7445 15.8772 16.7445 16.7512V21.7882C16.7445 22.7695 16.2615 23.2602 15.2955 23.2602ZM31.9927 23.3062C30.8273 23.3062 29.8153 23.0685 28.9567 22.5932C28.098 22.1178 27.431 21.4432 26.9557 20.5692C26.4803 19.6798 26.2427 18.6372 26.2427 17.4412C26.2427 16.5365 26.373 15.7315 26.6337 15.0262C26.9097 14.3055 27.3007 13.6922 27.8067 13.1862C28.3127 12.6648 28.9183 12.2738 29.6237 12.0132C30.329 11.7372 31.1187 11.5992 31.9927 11.5992C33.158 11.5992 34.17 11.8368 35.0287 12.3122C35.8873 12.7875 36.5543 13.4622 37.0297 14.3362C37.505 15.2102 37.7427 16.2452 37.7427 17.4412C37.7427 18.3458 37.6047 19.1585 37.3287 19.8792C37.068 20.5998 36.6847 21.2208 36.1787 21.7422C35.6727 22.2482 35.067 22.6392 34.3617 22.9152C33.6563 23.1758 32.8667 23.3062 31.9927 23.3062ZM31.9927 21.1212C32.56 21.1212 33.0583 20.9832 33.4877 20.7072C33.917 20.4312 34.2467 20.0248 34.4767 19.4882C34.722 18.9362 34.8447 18.2538 34.8447 17.4412C34.8447 16.2145 34.584 15.3022 34.0627 14.7042C33.5413 14.0908 32.8513 13.7842 31.9927 13.7842C31.4253 13.7842 30.927 13.9222 30.4977 14.1982C30.0683 14.4588 29.731 14.8652 29.4857 15.4172C29.2557 15.9538 29.1407 16.6285 29.1407 17.4412C29.1407 18.6525 29.4013 19.5725 29.9227 20.2012C30.444 20.8145 31.134 21.1212 31.9927 21.1212ZM44.7846 23.3062C43.6193 23.3062 42.6073 23.0685 41.7486 22.5932C40.8899 22.1178 40.2229 21.4432 39.7476 20.5692C39.2723 19.6798 39.0346 18.6372 39.0346 17.4412C39.0346 16.5365 39.1649 15.7315 39.4256 15.0262C39.7016 14.3055 40.0926 13.6922 40.5986 13.1862C41.1046 12.6648 41.7103 12.2738 42.4156 12.0132C43.1209 11.7372 43.9106 11.5992 44.7846 11.5992C45.9499 11.5992 46.9619 11.8368 47.8206 12.3122C48.6793 12.7875 49.3463 13.4622 49.8216 14.3362C50.2969 15.2102 50.5346 16.2452 50.5346 17.4412C50.5346 18.3458 50.3966 19.1585 50.1206 19.8792C49.8599 20.5998 49.4766 21.2208 48.9706 21.7422C48.4646 22.2482 47.8589 22.6392 47.1536 22.9152C46.4483 23.1758 45.6586 23.3062 44.7846 23.3062ZM44.7846 21.1212C45.3519 21.1212 45.8503 20.9832 46.2796 20.7072C46.7089 20.4312 47.0386 20.0248 47.2686 19.4882C47.5139 18.9362 47.6366 18.2538 47.6366 17.4412C47.6366 16.2145 47.3759 15.3022 46.8546 14.7042C46.3333 14.0908 45.6433 13.7842 44.7846 13.7842C44.2173 13.7842 43.7189 13.9222 43.2896 14.1982C42.8603 14.4588 42.5229 14.8652 42.2776 15.4172C42.0476 15.9538 41.9326 16.6285 41.9326 17.4412C41.9326 18.6525 42.1933 19.5725 42.7146 20.2012C43.2359 20.8145 43.9259 21.1212 44.7846 21.1212ZM53.8736 27.4002C53.4136 27.4002 53.0609 27.2775 52.8156 27.0322C52.5702 26.7868 52.4476 26.4265 52.4476 25.9512V13.0942C52.4476 12.6188 52.5702 12.2585 52.8156 12.0132C53.0609 11.7678 53.4059 11.6452 53.8506 11.6452C54.3106 11.6452 54.6632 11.7678 54.9086 12.0132C55.1539 12.2585 55.2766 12.6188 55.2766 13.0942V14.8882L55.0236 14.1982C55.2536 13.4162 55.7212 12.7875 56.4266 12.3122C57.1472 11.8368 57.9829 11.5992 58.9336 11.5992C59.9149 11.5992 60.7736 11.8368 61.5096 12.3122C62.2609 12.7875 62.8436 13.4622 63.2576 14.3362C63.6716 15.1948 63.8786 16.2298 63.8786 17.4412C63.8786 18.6372 63.6716 19.6798 63.2576 20.5692C62.8436 21.4432 62.2686 22.1178 61.5326 22.5932C60.7966 23.0685 59.9302 23.3062 58.9336 23.3062C57.9982 23.3062 57.1779 23.0762 56.4726 22.6162C55.7672 22.1408 55.2919 21.5275 55.0466 20.7762H55.3226V25.9512C55.3226 26.4265 55.1922 26.7868 54.9316 27.0322C54.6862 27.2775 54.3336 27.4002 53.8736 27.4002ZM58.1286 21.1212C58.6959 21.1212 59.1942 20.9832 59.6236 20.7072C60.0529 20.4312 60.3826 20.0248 60.6126 19.4882C60.8579 18.9362 60.9806 18.2538 60.9806 17.4412C60.9806 16.2145 60.7199 15.3022 60.1986 14.7042C59.6772 14.0908 58.9872 13.7842 58.1286 13.7842C57.5612 13.7842 57.0629 13.9222 56.6336 14.1982C56.2042 14.4588 55.8669 14.8652 55.6216 15.4172C55.3916 15.9538 55.2766 16.6285 55.2766 17.4412C55.2766 18.6525 55.5372 19.5725 56.0586 20.2012C56.5799 20.8145 57.2699 21.1212 58.1286 21.1212Z" fill="#DCA509"/>
<path d="M104.097 27.4459C103.269 27.4459 102.464 27.3693 101.682 27.2159C100.916 27.0626 100.218 26.8249 99.5895 26.5029C99.2982 26.3496 99.0988 26.1656 98.9915 25.9509C98.8995 25.7363 98.8688 25.5139 98.8995 25.2839C98.9455 25.0693 99.0375 24.8776 99.1755 24.7089C99.3288 24.5403 99.5128 24.4253 99.7275 24.3639C99.9422 24.3026 100.164 24.3333 100.394 24.4559C101.069 24.7933 101.705 25.0079 102.303 25.0999C102.917 25.2073 103.438 25.2609 103.867 25.2609C104.895 25.2609 105.661 25.0079 106.167 24.5019C106.689 24.0113 106.949 23.2753 106.949 22.2939V20.2239H107.156C106.926 21.0059 106.443 21.6346 105.707 22.1099C104.987 22.5699 104.166 22.7999 103.246 22.7999C102.234 22.7999 101.353 22.5699 100.601 22.1099C99.8502 21.6346 99.2675 20.9753 98.8535 20.1319C98.4395 19.2886 98.2325 18.3073 98.2325 17.1879C98.2325 16.3446 98.3475 15.5856 98.5775 14.9109C98.8228 14.2209 99.1602 13.6306 99.5895 13.1399C100.034 12.6493 100.563 12.2736 101.176 12.0129C101.805 11.7369 102.495 11.5989 103.246 11.5989C104.197 11.5989 105.025 11.8366 105.73 12.3119C106.451 12.7719 106.919 13.3853 107.133 14.1519L106.903 14.7269V13.0939C106.903 12.6186 107.026 12.2583 107.271 12.0129C107.532 11.7676 107.885 11.6449 108.329 11.6449C108.789 11.6449 109.142 11.7676 109.387 12.0129C109.633 12.2583 109.755 12.6186 109.755 13.0939V21.9489C109.755 23.7736 109.272 25.1459 108.306 26.0659C107.34 26.9859 105.937 27.4459 104.097 27.4459ZM104.028 20.6149C104.626 20.6149 105.14 20.4769 105.569 20.2009C105.999 19.9249 106.328 19.5339 106.558 19.0279C106.804 18.5066 106.926 17.8933 106.926 17.1879C106.926 16.1299 106.666 15.3019 106.144 14.7039C105.623 14.0906 104.918 13.7839 104.028 13.7839C103.43 13.7839 102.917 13.9219 102.487 14.1979C102.058 14.4739 101.721 14.8649 101.475 15.3709C101.245 15.8769 101.13 16.4826 101.13 17.1879C101.13 18.2459 101.391 19.0816 101.912 19.6949C102.434 20.3083 103.139 20.6149 104.028 20.6149ZM117.403 23.3059C116.238 23.3059 115.226 23.0683 114.367 22.5929C113.509 22.1176 112.842 21.4429 112.366 20.5689C111.891 19.6796 111.653 18.6369 111.653 17.4409C111.653 16.5363 111.784 15.7313 112.044 15.0259C112.32 14.3053 112.711 13.6919 113.217 13.1859C113.723 12.6646 114.329 12.2736 115.034 12.0129C115.74 11.7369 116.529 11.5989 117.403 11.5989C118.569 11.5989 119.581 11.8366 120.439 12.3119C121.298 12.7873 121.965 13.4619 122.44 14.3359C122.916 15.2099 123.153 16.2449 123.153 17.4409C123.153 18.3456 123.015 19.1583 122.739 19.8789C122.479 20.5996 122.095 21.2206 121.589 21.7419C121.083 22.2479 120.478 22.6389 119.772 22.9149C119.067 23.1756 118.277 23.3059 117.403 23.3059ZM117.403 21.1209C117.971 21.1209 118.469 20.9829 118.898 20.7069C119.328 20.4309 119.657 20.0246 119.887 19.4879C120.133 18.9359 120.255 18.2536 120.255 17.4409C120.255 16.2143 119.995 15.3019 119.473 14.7039C118.952 14.0906 118.262 13.7839 117.403 13.7839C116.836 13.7839 116.338 13.9219 115.908 14.1979C115.479 14.4586 115.142 14.8649 114.896 15.4169C114.666 15.9536 114.551 16.6283 114.551 17.4409C114.551 18.6523 114.812 19.5723 115.333 20.2009C115.855 20.8143 116.545 21.1209 117.403 21.1209ZM126.492 27.3999C126.032 27.3999 125.68 27.2773 125.434 27.0319C125.189 26.7866 125.066 26.4263 125.066 25.9509V13.0939C125.066 12.6186 125.189 12.2583 125.434 12.0129C125.68 11.7676 126.025 11.6449 126.469 11.6449C126.929 11.6449 127.282 11.7676 127.527 12.0129C127.773 12.2583 127.895 12.6186 127.895 13.0939V14.8879L127.642 14.1979C127.872 13.4159 128.34 12.7873 129.045 12.3119C129.766 11.8366 130.602 11.5989 131.552 11.5989C132.534 11.5989 133.392 11.8366 134.128 12.3119C134.88 12.7873 135.462 13.4619 135.876 14.3359C136.29 15.1946 136.497 16.2296 136.497 17.4409C136.497 18.6369 136.29 19.6796 135.876 20.5689C135.462 21.4429 134.887 22.1176 134.151 22.5929C133.415 23.0683 132.549 23.3059 131.552 23.3059C130.617 23.3059 129.797 23.0759 129.091 22.6159C128.386 22.1406 127.911 21.5273 127.665 20.7759H127.941V25.9509C127.941 26.4263 127.811 26.7866 127.55 27.0319C127.305 27.2773 126.952 27.3999 126.492 27.3999ZM130.747 21.1209C131.315 21.1209 131.813 20.9829 132.242 20.7069C132.672 20.4309 133.001 20.0246 133.231 19.4879C133.477 18.9359 133.599 18.2536 133.599 17.4409C133.599 16.2143 133.339 15.3019 132.817 14.7039C132.296 14.0906 131.606 13.7839 130.747 13.7839C130.18 13.7839 129.682 13.9219 129.252 14.1979C128.823 14.4586 128.486 14.8649 128.24 15.4169C128.01 15.9536 127.895 16.6283 127.895 17.4409C127.895 18.6523 128.156 19.5723 128.677 20.2009C129.199 20.8143 129.889 21.1209 130.747 21.1209ZM139.823 23.2369C139.363 23.2369 139.011 23.0989 138.765 22.8229C138.52 22.5469 138.397 22.1636 138.397 21.6729V13.2319C138.397 12.7259 138.52 12.3426 138.765 12.0819C139.011 11.8059 139.363 11.6679 139.823 11.6679C140.283 11.6679 140.636 11.8059 140.881 12.0819C141.142 12.3426 141.272 12.7259 141.272 13.2319V21.6729C141.272 22.1636 141.15 22.5469 140.904 22.8229C140.659 23.0989 140.299 23.2369 139.823 23.2369ZM139.823 9.52893C139.287 9.52893 138.865 9.39859 138.558 9.13793C138.267 8.86193 138.121 8.48626 138.121 8.01093C138.121 7.52026 138.267 7.14459 138.558 6.88393C138.865 6.62326 139.287 6.49293 139.823 6.49293C140.375 6.49293 140.797 6.62326 141.088 6.88393C141.38 7.14459 141.525 7.52026 141.525 8.01093C141.525 8.48626 141.38 8.86193 141.088 9.13793C140.797 9.39859 140.375 9.52893 139.823 9.52893ZM145.226 23.2599C144.766 23.2599 144.413 23.1373 144.168 22.8919C143.922 22.6313 143.8 22.2633 143.8 21.7879V8.12593C143.8 7.65059 143.922 7.29026 144.168 7.04493C144.413 6.79959 144.766 6.67693 145.226 6.67693C145.686 6.67693 146.038 6.79959 146.284 7.04493C146.544 7.29026 146.675 7.65059 146.675 8.12593V16.6129H146.721L150.516 12.6109C150.822 12.3043 151.091 12.0666 151.321 11.8979C151.551 11.7293 151.865 11.6449 152.264 11.6449C152.662 11.6449 152.961 11.7523 153.161 11.9669C153.375 12.1663 153.483 12.4116 153.483 12.7029C153.483 12.9943 153.345 13.2856 153.069 13.5769L149.067 17.8089V16.6129L153.46 21.3509C153.736 21.6423 153.858 21.9413 153.828 22.2479C153.812 22.5393 153.69 22.7846 153.46 22.9839C153.23 23.1679 152.938 23.2599 152.586 23.2599C152.156 23.2599 151.811 23.1756 151.551 23.0069C151.305 22.8383 151.029 22.5853 150.723 22.2479L146.721 18.0619H146.675V21.7879C146.675 22.7693 146.192 23.2599 145.226 23.2599ZM159.261 23.3059C158.449 23.3059 157.72 23.1526 157.076 22.8459C156.448 22.5239 155.949 22.0946 155.581 21.5579C155.229 21.0213 155.052 20.4156 155.052 19.7409C155.052 18.9129 155.267 18.2613 155.696 17.7859C156.126 17.2953 156.823 16.9426 157.789 16.7279C158.755 16.5133 160.051 16.4059 161.676 16.4059H162.826V18.0619H161.699C160.749 18.0619 159.99 18.1079 159.422 18.1999C158.855 18.2919 158.449 18.4529 158.203 18.6829C157.973 18.8976 157.858 19.2043 157.858 19.6029C157.858 20.1089 158.035 20.5229 158.387 20.8449C158.74 21.1669 159.231 21.3279 159.859 21.3279C160.365 21.3279 160.81 21.2129 161.193 20.9829C161.592 20.7376 161.906 20.4079 162.136 19.9939C162.366 19.5799 162.481 19.1046 162.481 18.5679V15.9229C162.481 15.1563 162.313 14.6043 161.975 14.2669C161.638 13.9296 161.071 13.7609 160.273 13.7609C159.829 13.7609 159.346 13.8146 158.824 13.9219C158.318 14.0293 157.782 14.2133 157.214 14.4739C156.923 14.6119 156.662 14.6503 156.432 14.5889C156.218 14.5276 156.049 14.4049 155.926 14.2209C155.804 14.0216 155.742 13.8069 155.742 13.5769C155.742 13.3469 155.804 13.1246 155.926 12.9099C156.049 12.6799 156.256 12.5113 156.547 12.4039C157.253 12.1126 157.927 11.9056 158.571 11.7829C159.231 11.6603 159.829 11.5989 160.365 11.5989C161.469 11.5989 162.374 11.7676 163.079 12.1049C163.8 12.4423 164.337 12.9559 164.689 13.6459C165.042 14.3206 165.218 15.1946 165.218 16.2679V21.7879C165.218 22.2633 165.103 22.6313 164.873 22.8919C164.643 23.1373 164.314 23.2599 163.884 23.2599C163.455 23.2599 163.118 23.1373 162.872 22.8919C162.642 22.6313 162.527 22.2633 162.527 21.7879V20.6839H162.711C162.604 21.2206 162.389 21.6883 162.067 22.0869C161.761 22.4703 161.37 22.7693 160.894 22.9839C160.419 23.1986 159.875 23.3059 159.261 23.3059Z" fill="#DCA509"/>
<path d="M82.16 24.849C81.5179 25.4862 80.4821 25.4862 79.84 24.849V24.849C75.72 20.7771 73 18.0828 73 14.7956C73 12.1014 74.936 10 77.4 10C78.5863 10 79.732 10.513 80.5844 11.3501C80.8109 11.5725 81.1891 11.5725 81.4156 11.3501C82.268 10.513 83.4137 10 84.6 10C87.064 10 89 12.1014 89 14.7956C89 18.0828 86.28 20.7771 82.16 24.849V24.849Z" fill="#DCA509"/>
</svg>
