<svg width="28" height="28" viewBox="0 0 28 28" fill="none" xmlns="http://www.w3.org/2000/svg">
<g opacity="0.2">
<path fill-rule="evenodd" clip-rule="evenodd" d="M2.33333 14.0175C2.33333 7.87165 7.245 2.33334 14.0233 2.33334C20.65 2.33334 25.6667 7.76649 25.6667 13.9825C25.6667 21.1916 19.7867 25.6667 14 25.6667C12.0867 25.6667 9.96333 25.1526 8.26 24.1477C7.665 23.7855 7.16333 23.5168 6.52166 23.7271L4.165 24.4282C3.57 24.6151 3.03333 24.1477 3.20833 23.5168L3.99 20.8995C4.11833 20.5373 4.095 20.1517 3.90833 19.8479C2.90499 18.0018 2.33333 15.9805 2.33333 14.0175ZM12.4833 14.0175C12.4833 14.8471 13.1483 15.5131 13.9767 15.5248C14.805 15.5248 15.47 14.8471 15.47 14.0292C15.47 13.1996 14.805 12.5336 13.9767 12.5336C13.16 12.522 12.4833 13.1996 12.4833 14.0175ZM17.8617 14.0292C17.8617 14.8471 18.5267 15.5248 19.355 15.5248C20.1833 15.5248 20.8483 14.8471 20.8483 14.0292C20.8483 13.1996 20.1833 12.5336 19.355 12.5336C18.5267 12.5336 17.8617 13.1996 17.8617 14.0292ZM8.59833 15.5248C7.78166 15.5248 7.105 14.8471 7.105 14.0292C7.105 13.1996 7.77 12.5336 8.59833 12.5336C9.42666 12.5336 10.0917 13.1996 10.0917 14.0292C10.0917 14.8471 9.42666 15.5131 8.59833 15.5248Z" fill="black"/>
</g>
</svg>
